<?xml version="1.0" encoding="utf-8"?>
<!-- Generator: Adobe Illustrator 23.0.4, SVG Export Plug-In . SVG Version: 6.00 Build 0)  -->
<svg version="1.1" id="Layer_1" xmlns="http://www.w3.org/2000/svg" xmlns:xlink="http://www.w3.org/1999/xlink" x="0px" y="0px"
	 viewBox="0 0 412 247" style="enable-background:new 0 0 412 247;" xml:space="preserve">
<style type="text/css">
	.st0{clip-path:url(#SVGID_2_);}
	.st1{clip-path:url(#SVGID_4_);fill:url(#SVGID_5_);}
	.st2{fill:#FFFFFF;}
	.st3{fill:none;stroke:#313A96;stroke-width:2.445;}
	.st4{fill:#231F20;}
	.st5{fill:#ED1B2E;}
	.st6{clip-path:url(#SVGID_7_);}
	.st7{clip-path:url(#SVGID_9_);}
	.st8{clip-path:url(#SVGID_13_);fill:#313A96;}
</style>
<g>
	<defs>
		<path id="SVGID_1_" d="M411.3,123.6c0,68.2-92.1,123.4-205.6,123.4C92.1,247,0,191.7,0,123.6S92.1,0.1,205.6,0.1
			C319.2,0.1,411.3,55.4,411.3,123.6"/>
	</defs>
	<clipPath id="SVGID_2_">
		<use xlink:href="#SVGID_1_"  style="overflow:visible;"/>
	</clipPath>
	<g class="st0">
		<defs>
			<rect id="SVGID_3_" x="0.1" y="0.1" width="411.2" height="246.8"/>
		</defs>
		<clipPath id="SVGID_4_">
			<use xlink:href="#SVGID_3_"  style="overflow:visible;"/>
		</clipPath>
		
			<radialGradient id="SVGID_5_" cx="0" cy="247" r="1" gradientTransform="matrix(205.637 0 0 -123.426 204.205 30610.0723)" gradientUnits="userSpaceOnUse">
			<stop  offset="0" style="stop-color:#FFFFFF"/>
			<stop  offset="0.5225" style="stop-color:#FFFFFF"/>
			<stop  offset="0.6355" style="stop-color:#FFFEFC"/>
			<stop  offset="0.7034" style="stop-color:#FFF9F4"/>
			<stop  offset="0.7594" style="stop-color:#FEF1E6"/>
			<stop  offset="0.8089" style="stop-color:#FDE5D2"/>
			<stop  offset="0.8541" style="stop-color:#FCD6B7"/>
			<stop  offset="0.8963" style="stop-color:#FAC497"/>
			<stop  offset="0.936" style="stop-color:#F9AE70"/>
			<stop  offset="0.9728" style="stop-color:#F79545"/>
			<stop  offset="1" style="stop-color:#F58020"/>
		</radialGradient>
		<rect x="0.1" y="0.1" class="st1" width="411.2" height="246.8"/>
	</g>
</g>
<path class="st2" d="M391.9,122.5c0,59.5-83.8,107.7-187.1,107.7c-103.3,0-187.1-48.2-187.1-107.7S101.5,14.8,204.8,14.8
	C308.1,14.8,391.9,63,391.9,122.5"/>
<path class="st3" d="M391.9,122.5c0,59.5-83.8,107.7-187.1,107.7c-103.3,0-187.1-48.2-187.1-107.7S101.5,14.8,204.8,14.8
	C308.1,14.8,391.9,63,391.9,122.5z"/>
<rect x="141.9" y="187.8" class="st4" width="149.8" height="25.3"/>
<path class="st2" d="M151.9,194.2c0-0.8,0.3-0.9,0.9-0.9c1,0,4.3,0.1,4.3,3.7c0,3.8-3,3.8-3.9,3.8c-0.5,0-0.9,0-1.4-0.1V194.2
	 M147.7,192.9c1.7,0.2,1.9,0.5,1.9,2.3V206c0,1.8,0,2.4-1.9,2.5v0.5h6.4v-0.5c-1.7,0-2.1-0.4-2.1-2.3v-4.6c0.5,0.1,1,0.1,1.5,0.1
	c2.4,0,3.8-0.5,4.8-1.5c0.4-0.4,1.4-1.4,1.4-3.4c0-3.2-2.8-4.5-5.9-4.5h-6V192.9z"/>
<path class="st2" d="M187,192.9c-1.7,0.2-2.1,0.6-2.1,3.2v6.6c0,2,0,6.7-5.9,6.7c-5.6,0-5.6-4.9-5.6-6.4v-7.9c0-1.9-0.3-2.1-2-2.3
	v-0.5h6.4v0.5c-1.8,0.1-2.1,0.5-2.1,2.3v8.1c0,1.6,0,5.1,3.9,5.1c1.8,0,3.1-0.8,3.7-2c0.3-0.5,0.5-1.4,0.5-3.4v-6.8
	c0-2.7-0.5-3.1-2.1-3.2v-0.5h5.3V192.9"/>
<path class="st2" d="M203.2,194.2c0-0.7,0.2-0.9,1.4-0.9c0.9,0,3.9,0.1,3.9,3.4c0,3.6-3.4,3.6-5.3,3.7V194.2 M213.5,208.6
	c-0.9,0-1.5-0.5-2-1.2l-4.7-6.4c1.2-0.3,4.1-0.9,4.1-4.2c0-3.9-3.7-4.4-5.8-4.4h-6.2v0.5c1.6,0.2,1.9,0.4,1.9,2.3V206
	c0,1.9-0.1,2.4-1.9,2.5v0.5h6.3v-0.5c-1.8-0.1-2-0.6-2-2.3v-5l1.3,0l5.4,7.7h3.7V208.6z"/>
<path class="st2" d="M225.2,208.6c1.9,0,2.2-0.5,2.2-2.3v-11.2c0-1.9-0.3-2.2-2.2-2.3v-0.5h6.7v0.5c-1.7,0.1-2.2,0.3-2.2,2.3v11.2
	c0,2,0.5,2.2,2.2,2.3v0.5h-6.7V208.6"/>
<path class="st2" d="M259.4,192.9c-1.4,0.2-2.2,0.3-2.2,3.2v13.2h-0.4l-10-13.8h-0.1v9.8c0,2.6,0.5,3.1,2.1,3.2v0.5h-5.3v-0.5
	c1.7-0.1,2.2-0.5,2.2-3.2v-11.1c-0.9-1.3-1.3-1.4-2.2-1.4v-0.5h3.9l8.7,12.1h0v-8.4c0-2.9-0.6-3.1-2.2-3.2v-0.5h5.3V192.9"/>
<path class="st2" d="M275,202.6l2.6-6.9l2.6,6.9H275 M286.1,208.6c-1-0.1-1.3-0.4-2-2.2l-5.6-14.3h-0.5l-4.7,12.4
	c-0.4,1.1-1.1,2.9-1.7,3.6c-0.4,0.5-0.8,0.5-1.2,0.6v0.5h4.5v-0.5c-0.5,0-1.5,0-1.5-1.1c0-0.3,0.1-0.6,0.2-1l1-2.9h5.9l0.9,2.4
	c0.1,0.3,0.4,1.2,0.4,1.6c0,0.9-0.7,1-1.6,1v0.5h5.8V208.6z"/>
<rect x="115.6" y="189.4" class="st5" width="7.3" height="7.3"/>
<rect x="122.9" y="196.7" class="st5" width="7.3" height="7.3"/>
<rect x="130.3" y="204.1" class="st5" width="7.3" height="7.3"/>
<rect x="130.3" y="189.4" class="st5" width="7.3" height="7.3"/>
<rect x="115.6" y="204.1" class="st5" width="7.3" height="7.3"/>
<path class="st5" d="M139.1,212.4h-24.9l0.3,0.3v-24.7l-0.3,0.3h24.9l-0.3-0.3v24.7L139.1,212.4 M139.4,212.7v-25h-25.5V213h25.5
	V212.7z"/>
<path class="st4" d="M293.8,191c0-1.2,0.9-2.1,2.1-2.1c1.2,0,2.1,0.9,2.1,2.1c0,1.2-0.9,2.2-2.1,2.2
	C294.8,193.2,293.8,192.3,293.8,191 M296,193.6c1.4,0,2.6-1.1,2.6-2.6c0-1.5-1.2-2.6-2.6-2.6c-1.4,0-2.6,1.1-2.6,2.6
	C293.3,192.5,294.5,193.6,296,193.6z M295.4,191.2h0.5l0.8,1.3h0.5l-0.8-1.3c0.4-0.1,0.8-0.3,0.8-0.8c0-0.6-0.3-0.8-1.1-0.8H295v3
	h0.5V191.2z M295.4,190.9v-0.9h0.6c0.3,0,0.7,0.1,0.7,0.4c0,0.5-0.3,0.5-0.7,0.5H295.4z"/>
<g>
	<defs>
		<rect id="SVGID_6_" x="52.7" y="23.4" width="307.9" height="158.6"/>
	</defs>
	<clipPath id="SVGID_7_">
		<use xlink:href="#SVGID_6_"  style="overflow:visible;"/>
	</clipPath>
	<g class="st6">
		<defs>
			<path id="SVGID_8_" d="M366.1,116.4c0,54.1-72.7,97.9-162.4,97.9S41.3,170.4,41.3,116.4c0-54.1,72.7-97.9,162.4-97.9
				S366.1,62.3,366.1,116.4"/>
		</defs>
		<clipPath id="SVGID_9_">
			<use xlink:href="#SVGID_8_"  style="overflow:visible;"/>
		</clipPath>
		<g class="st7">
			<defs>
				<rect id="SVGID_10_" x="52.6" y="23.2" width="308.1" height="158.8"/>
			</defs>
			<clipPath id="SVGID_11_">
				<use xlink:href="#SVGID_10_"  style="overflow:visible;"/>
			</clipPath>
			<g style="clip-path:url(#SVGID_11_);">
				
					<image style="overflow:visible;" width="1283" height="661" xlink:href="AEDBD87DB97D2C38.jpg"  transform="matrix(0.2401 0 0 0.2402 52.608 23.248)">
				</image>
			</g>
		</g>
	</g>
</g>
<g>
	<defs>
		<path id="SVGID_12_" d="M366.1,116.4c0,54.1-72.7,97.9-162.4,97.9S41.3,170.4,41.3,116.4c0-54.1,72.7-97.9,162.4-97.9
			S366.1,62.3,366.1,116.4"/>
	</defs>
	<clipPath id="SVGID_13_">
		<use xlink:href="#SVGID_12_"  style="overflow:visible;"/>
	</clipPath>
	<path class="st8" d="M83.9,93.3c0,0,7.4,6,22.2-14.5c0,0,9-12.3,16.8-29.4c0,0,1.6-8.3,5.9-8.8c0,0,1.4-0.2,0.6,1.5
		c0,0-2.7,3.3-1.9,9.9c0,0,1.4,13.6,2,18c0.6,4.4,1.2,8.9,0.6,13.3c0,0,19.7-42.4,37.7-42.2c0,0,6,0,5.7,5.7c0,0,0.5,5.1-7.4,8
		l-1.5-1.4c0,0,3.9-0.4,3.9-4.8c0,0,0.5-3.9-4.1-3.9c0,0-15-2.2-38.6,52.2l-1.5-0.3c0,0,1.1-6.9,0.9-10c0,0-0.3-7-0.9-11.3
		c0,0-2.6-13.4-1.9-21.3c0,0-20,43.6-37.2,42.4c0,0-7.4,0.7-7.4-4.6c0,0,0-3.1,3.3-3.3c0,0,3.5,0,3.4,3.1
		C84.5,91.7,84.3,93,83.9,93.3"/>
	<path class="st8" d="M204.6,35.2c0.1,0.7,0.1,1.3,0.1,2c0,4.1-4.4,7.8-9.3,7.8c-2.9,0-5.8-1.7-5.8-5.2c0-8.5,16.5-10.2,23.1-10.2
		c4.2,0,8.9,0.3,10.8,0.4c1.3,0,1.8,0.6,1.8,1.3c0,0.7-0.9,1.4-2.8,1.4c-1.8,0-3.3-0.1-4.5-0.1c-4.6,0-7.5,6.9-11,12.8
		c-3.6,6.1-7.9,9.8-14.5,9.8c-2.9,0-7.4-1.1-7.4-4.8c0-1.3,0.9-2.4,2.3-2.4c1.2,0,1.8,0.6,1.8,1.6c0,1-0.5,1.5-1.3,1.7
		c0.2,2.4,1.6,3.5,4.8,3.5c6.1,0,9.3-6.7,12.2-11.8c3.3-5.8,5.6-8.6,11.6-10.5v-0.1c-1.4-0.2-4.6-0.3-6.9-0.3
		c-8.9,0-19.5,1.7-19.5,7.6c0,2.6,3.1,3.9,5.7,3.9c3.8,0,8.6-2.1,8.6-6.5c0-0.5,0-1-0.1-1.6L204.6,35.2"/>
	<path class="st8" d="M207.5,54.6L222.5,30l3.9-0.2l-11.8,18.7l0.1,0.1c2.1-2.5,5.3-7.1,9-7.1c1.5,0,2.4,0.8,2.4,2.4
		c0,2.6-5,7.3-5,9.6c0,0.6,0.3,0.8,0.7,0.8c2.1,0,8.1-6.9,9.6-9.1l0.2,0.2c-1.2,1.6-3.1,3.9-4.9,5.8c-2.6,2.6-4.2,3.7-6.1,3.7
		c-1.7,0-2.5-1.2-2.5-2.5c0-3.3,5-7,5-9.1c0-0.7-0.5-1-0.9-1c-3.1,0-9.3,8.6-11,12.1L207.5,54.6"/>
	<path class="st8" d="M237.2,42.8c0,2.3-3.5,5.2-7.3,6c0.6-2.4,4-6.9,6.4-6.9C236.8,41.9,237.2,42.2,237.2,42.8 M244.6,45
		c-1.3,1.6-3.1,3.7-4.9,5.5c-2.4,2.2-4.9,3.5-6.9,3.5c-2,0-3.2-1.4-3.2-3.5c0-0.4,0.1-0.8,0.2-1.3c2.5-0.5,10.3-2,10.3-5.5
		c0-1.4-1.2-2.2-3.2-2.2c-4.4,0-10.6,4.8-10.6,9.3c0,2.6,1.7,4.3,4.4,4.3c2.6,0,5.7-0.9,9-3.9c2.3-2.1,3.9-4.1,5.4-6L244.6,45z"/>
	<path class="st8" d="M141.2,88.2c1-5.7,9.7-18.9,15.3-18.9c2.3,0,2.7,1.5,2.3,4c-0.9,5.3-10.2,19.5-15.5,19.9
		C140.8,93.3,140.7,90.9,141.2,88.2 M160.7,72.9c-0.5-3-1.8-4.4-4.6-4.4c-7.6,0-19.1,10.3-20.8,19.5c-0.7,4,0.1,7.7,4.1,7.7
		c3.6,0,7.4-2.6,10.5-5.9h0.1c-0.2,0.4-0.4,1.1-0.6,1.8c-0.4,2.3,0.8,4,3.4,4c3.7,0,8.2-3.2,12.8-7.7c4.7-4.5,8.1-8.6,10.8-11.9
		l-0.4-0.3c-1.9,2.3-6.4,7.4-10.1,11c-4.4,4.3-8.6,7.2-10.5,7.2c-0.9,0-1.4-0.5-1.2-1.8c0.9-5,11.8-17.6,15-22.6l-6.4,0.4
		L160.7,72.9z"/>
	<path class="st8" d="M173.3,70.9l0.7-1.3h4.7l6.2-8.9l6.7-0.3l-6.7,9.2h7.8l-0.8,1.3h-7.9c-9.8,14-13.1,18.3-13.6,21
		c-0.2,1.2,0.2,2,1.3,2c2,0,6.1-2.5,10.6-6.8c3.2-3,7.2-7.4,10.7-11.5l0.3,0.3c-2.3,2.8-6.1,7.2-10.2,11.2c-4.6,4.4-9.5,8-13.2,8
		c-2.6,0-4.7-1.2-4.1-4.6c0.9-4.9,5.6-10,12.3-19.8H173.3"/>
	<path class="st8" d="M202.6,69.6c-10.1,14-14.4,19.4-14.9,22.3c-0.2,1.1,0,1.9,0.8,1.9c1.6,0,4.9-2,10.3-7.2
		c4.4-4.2,8.6-8.9,10.4-10.9l0.5,0.4c-2.5,3-7.4,8.1-11.2,11.8c-5.7,5.5-9.2,7.4-12.1,7.4c-2.7,0-3.9-1.9-3.4-4.6
		c0.7-3.7,3.6-7.4,13.2-20.7L202.6,69.6 M207,61.5c-0.3,1.9-2.2,3.8-3.9,3.8c-1.8,0-3.1-1.1-2.7-3.3c0.4-2.2,2.4-3.8,4.2-3.8
		C206.1,58.1,207.3,59.7,207,61.5z"/>
	<path class="st8" d="M207.3,94.9c-1.8,0-2.4-1.4-2-3.7c1.1-6,10.2-21.8,16.4-21.8c1.8,0,2.4,1.4,2,3.8
		C222.6,79.1,213.4,94.9,207.3,94.9 M238.7,75.7c-2.7,3-4.8,4.5-7,4.5c-2.3,0-3.4-1.8-3.3-4.7c0.1-3.8-1.9-7-6.3-7
		c-8.1,0-19.5,8.8-21.3,18.8c-0.9,5.2,1.4,8.4,5.9,8.4c8.5,0,17.4-7.9,21-17.4c0.9,1.7,2,2.7,3.9,2.7c2.7,0,5.4-2.4,7.5-4.8
		L238.7,75.7z"/>
	<path class="st8" d="M237.9,82.4c2.9-3.4,11.5-13.9,17.9-13.9c2.7,0,3.7,2,3.3,4.5c-1.1,6.4-10.9,13.8-11.8,19.1
		c-0.2,1.1,0.2,1.9,1.2,1.9c1.2,0,4-1.6,9.5-7.2c4.2-4.3,8.2-8.9,10.1-11l0.5,0.4c-2.7,2.9-6.7,7.6-11,11.9
		c-5.2,5.2-8.1,7.2-11.3,7.2c-3.1,0-4.1-2.3-3.7-4.9c1.1-6.4,10.9-14,11.7-18.4c0.2-1-0.3-1.8-1.4-1.8c-4.8,0-18.8,17.1-23.1,24.2
		l-6.2,0.2c5.8-8.3,11.7-16.4,17.4-24.9l7-0.3l-10.2,12.9L237.9,82.4"/>
	<path class="st8" d="M265.2,88.2c1-5.7,9.7-18.9,15.3-18.9c2.3,0,2.7,1.5,2.3,4c-0.9,5.3-10.2,19.5-15.5,19.9
		C264.8,93.3,264.7,90.9,265.2,88.2 M284.7,72.9c-0.5-3-1.8-4.4-4.6-4.4c-7.6,0-19.1,10.3-20.8,19.5c-0.7,4,0.1,7.7,4.1,7.7
		c3.6,0,7.4-2.6,10.5-5.9h0.1c-0.3,0.4-0.4,1.1-0.6,1.8c-0.4,2.3,0.8,4,3.4,4c3.7,0,8.2-3.2,12.8-7.7c4.7-4.5,8.1-8.6,10.8-11.9
		l-0.4-0.3c-1.9,2.3-6.4,7.4-10.1,11c-4.4,4.3-8.6,7.2-10.5,7.2c-0.9,0-1.4-0.5-1.2-1.8c0.9-5,11.8-17.6,15-22.6l-6.4,0.4
		L284.7,72.9z"/>
	<path class="st8" d="M321,52.6l-19.2,27.3c-4.2,5.9-6.9,9.8-7.4,12.2c-0.2,1.2,0.1,1.9,1,1.9c1.7,0,5.3-2.3,9.3-6.2
		c3.7-3.6,7.5-7.7,11.1-12.1l0.5,0.2c-2.6,3.1-6.5,7.7-9.8,11c-5.8,5.6-9.5,8.3-13.4,8.3c-2.8,0-3.9-1.4-3.4-4.2
		c0.5-2.6,2.8-6.4,7.5-13.1l17-24.9L321,52.6"/>
	<path class="st8" d="M115.3,117c-2,16.5-16.9,33.9-33.7,33.8c-5.6,0-9.9-0.9-11-1.1l0-0.2c25.2-6.9,25.9-26,43.1-42.7
		C115.7,109.7,115.8,113.4,115.3,117 M129.5,98.8c-5.4,0.7-10.9,2.4-15.8,5.3c-5.3-3.8-9.4-5-16.5-5c-14.9,0-33.3,12.1-35.2,27.5
		c-0.8,6.5,2.7,12.2,9.3,12.2c8.7,0,17.5-7.4,19.9-22.9h-0.8c-1.3,9.6-7.3,20.9-15.9,20.9c-5.6,0-7.5-5.3-6.8-10.5
		c2-16,16.2-26.3,30.9-26.3c5,0,10.4,1.7,13.7,5c-19.5,10.4-26.8,41.5-43.1,44.4c-5-0.7-8.8-1.7-10.7-1.7c-1.9,0-2.7,0.3-2.8,1.4
		c-0.1,0.9,1.1,2.1,5,2.1c4,0,6.4-0.6,8.4-0.9c3.6,0.8,8.6,1.6,12.8,1.6c18.2,0,36.1-10.1,38.4-29.4c0.8-6.5-0.8-12.2-4.9-16.7
		c4.2-3.3,8.9-5.8,14-6.3L129.5,98.8z"/>
	<path class="st8" d="M123.2,151.3c-1.8,0-2.5-1.4-2.1-3.8c0.9-6,9.8-22.1,15.9-22.1c1.8,0,2.5,1.4,2.1,3.8
		C138.2,135.2,129.4,151.3,123.2,151.3 M154.2,131.8c-2.7,3.1-4.7,4.6-6.9,4.6c-2.3,0-3.4-1.9-3.4-4.8c0-3.9-2.1-7.1-6.4-7.1
		c-8.1,0-19.3,8.9-20.9,19.1c-0.8,5.2,1.6,8.5,6.1,8.5c8.5,0,17.3-8.1,20.6-17.6c0.9,1.7,2,2.7,3.9,2.7c2.7,0,5.3-2.4,7.4-4.9
		L154.2,131.8z"/>
	<path class="st8" d="M151.9,144.3c1-6.3,9.3-18.9,15.3-18.9c2.2,0,2.1,2.4,1.8,4.4c-0.8,5.5-9.4,19.5-14.5,19.5
		C151.6,149.3,151.4,147.1,151.9,144.3 M134.8,156.2c-0.8-0.1-2.6-0.4-3.3-0.4c-4.1,0-8.7,2.9-9.5,8.2c-1.1,6.9,3.8,9.3,9.8,9.3
		c11.7,0,21.8-7.9,29.5-19.9c9.7-3.1,18.5-12.2,25.4-21.4l-0.3-0.2c-6.8,8.6-14.8,17.6-24.4,20.7c6.1-8.8,11.6-18.1,17.3-26.8
		l-6.3,0.4l-1.9,3.1c-0.4-3.5-2-4.7-5-4.7c-8.1,0-18.7,10.9-20.2,20.4c-0.5,3.6,0.8,6.8,4.1,6.8c4.3,0,8.5-3.5,11.7-7.1l0.1,0.1
		c-7.1,9.6-17.6,27.7-29.1,27.7c-4.2,0-6.3-3.5-5.6-8.1c0.7-4.7,3.4-7.6,7.7-7.7L134.8,156.2z"/>
	<path class="st8" d="M197.9,131.1c1.7,0,3.1,1.1,2.9,3.2c-0.3,2.6-2.3,4-4.4,4.1c-0.5,1.4-0.8,2.7-0.9,4c-0.7,6.5,5,8.8,9.7,8.8
		c12.3,0,15.9-16.8,17.5-27.8c1.9-13.2,7.7-24.5,18.5-24.5c4.6,0,8.7,2.1,8.1,7.6c-0.5,4.6-4,6.1-7.6,6.1c1.4-2.2,2.2-4.2,2.5-6.8
		c0.4-3.7-1.2-6-3.9-6c-9.5,0-10.7,17.6-13.7,31.5c-1.7,8.2-7.6,20.7-21.9,20.7c-7.1,0-13.7-4.5-12.7-13.7
		C192.4,134.8,194.5,131.1,197.9,131.1"/>
	<path class="st8" d="M227.7,151l31-49.7l6.7-0.4L241,138.6l0.1,0.1c4.2-5,10.7-14.2,17-14.2c2.6,0,4,1.6,3.6,4.7
		c-0.6,5.3-10.2,14.8-10.7,19.4c-0.1,1.2,0.3,1.7,1.1,1.7c3.7,0,15.4-13.9,18.6-18.4l0.3,0.4c-2.5,3.2-6.1,7.9-9.8,11.7
		c-5,5.3-8,7.5-11.2,7.5c-2.9,0-4-2.4-3.7-5c0.7-6.6,10.1-14.1,10.6-18.4c0.2-1.4-0.6-2.1-1.4-2.1c-5.3,0-17.8,17.4-21.6,24.5
		L227.7,151"/>
	<path class="st8" d="M270.7,151.3c-1.8,0-2.5-1.4-2.3-3.8c0.7-6,8.8-22.1,14.9-22.1c1.8,0,2.5,1.4,2.3,3.8
		C285,135.2,276.9,151.3,270.7,151.3 M300.9,131.8c-2.5,3.1-4.5,4.6-6.7,4.6c-2.3,0-3.5-1.9-3.6-4.8c-0.1-3.9-2.4-7.1-6.8-7.1
		c-8.1,0-18.9,8.9-20.1,19.1c-0.6,5.2,2,8.5,6.5,8.5c8.5,0,16.9-8.1,19.8-17.6c1,1.7,2.2,2.7,4,2.7c2.7,0,5.2-2.4,7.1-4.9
		L300.9,131.8z"/>
	<path class="st8" d="M312,125.4c-3.4,5.1-12.2,15.6-12.9,21.7c-0.2,1.6,0.2,3,1.7,3c3,0,6.7-4,11.7-11.7c3.4-5.3,6.5-10.6,8-12.7
		l6.6-0.3c-3.3,5.2-12.4,16.5-13,22.4c-0.2,1.8,0.4,3.1,1.9,3.1c6.3,0,14.6-13,15.6-19.6c-0.4-0.9-0.7-1.9-0.6-3.2
		c0.2-1.9,1.3-3.5,3.1-3.5c2.7,0,3,3.1,2.7,5.8c-0.1,1-0.4,2.7-0.7,4c1.2,1.2,2.5,1.9,4.1,1.9c2.8,0,5.1-2.2,6.8-4.5l0.4,0.4
		c-1.9,2.7-4.6,5-7.3,5c-1.8,0-3.2-0.8-4.2-1.9c-3.5,9.3-12.1,16.4-20.3,16.4c-4.4,0-6-3-5.6-6.9c0.1-0.9,0.3-1.7,0.5-2.2l-0.1-0.1
		c-3.2,4.6-7.2,9.2-12.1,9.2c-3.1,0-4.2-2.7-3.8-6c0.7-6.1,7.8-15,11.1-20L312,125.4"/>
</g>
<path class="st4" d="M160.3,163.2h4c3.1,0,5.7,1.1,5.7,4.6c0,3.4-2.6,4.6-5.4,4.6h-2.1v6.1h-2.2V163.2 M162.5,170.4h2.2
	c1.4,0,3.1-0.7,3.1-2.7c0-1.9-2-2.6-3.4-2.6h-1.9V170.4z"/>
<path class="st4" d="M171.4,167.3h1.9v1.7h0c0.5-1.2,1.7-2,2.9-2c0.6,0,0.9,0.1,1.4,0.2v1.8c-0.4-0.2-0.8-0.2-1.1-0.2
	c-1.8,0-3,1.7-3,4.5v5.1h-2.1V167.3"/>
<path class="st4" d="M187.5,178c-0.8,0.3-1.7,0.7-3.5,0.7c-3.9,0-5.8-2.4-5.8-6c0-3.3,2.1-5.6,5.2-5.6c3.7,0,4.9,2.7,4.9,6.3h-7.9
	c0,2.2,1.7,3.7,3.7,3.7c1.4,0,2.9-0.7,3.4-1.1V178 M186.1,171.8c0-1.7-1-3.1-2.8-3.1c-2,0-2.8,1.7-3,3.1H186.1z"/>
<path class="st4" d="M189.3,176.3c0.8,0.5,2,0.8,2.6,0.8c0.9,0,2.1-0.4,2.1-1.6c0-2-4.8-1.9-4.8-5c0-2.3,1.7-3.4,3.9-3.4
	c1,0,1.7,0.2,2.6,0.4l-0.2,1.8c-0.5-0.3-1.7-0.6-2.2-0.6c-1,0-2,0.4-2,1.4c0,2.3,4.8,1.6,4.8,5.2c0,2.4-1.9,3.5-3.9,3.5
	c-1,0-2.1-0.1-3.1-0.6L189.3,176.3"/>
<path class="st4" d="M206.2,178c-0.8,0.3-1.7,0.7-3.5,0.7c-3.9,0-5.8-2.4-5.8-6c0-3.3,2.1-5.6,5.2-5.6c3.7,0,4.9,2.7,4.9,6.3h-7.9
	c0,2.2,1.7,3.7,3.7,3.7c1.4,0,2.9-0.7,3.4-1.1V178 M204.8,171.8c0-1.7-1-3.1-2.8-3.1c-2,0-2.8,1.7-3,3.1H204.8z"/>
<path class="st4" d="M208.8,167.3h2v1.8h0c0.6-1.3,2.1-2,3.6-2c2.9,0,4.2,1.8,4.2,4.8v6.6h-2.1v-5.8c0-2.6-0.6-3.9-2.4-4
	c-2.3,0-3.4,1.9-3.4,4.6v5.1h-2.1V167.3"/>
<path class="st4" d="M227.1,169h-2.9v6.1c0,1.3,0.8,2,1.7,2c0.6,0,1.1-0.2,1.4-0.4v1.7c-0.5,0.1-1.1,0.3-1.7,0.3
	c-2.1,0-3.4-1-3.4-3.2V169h-2.5v-1.7h2.5v-2.6l2.1-0.7v3.2h2.9V169"/>
<path class="st4" d="M237.2,178c-0.8,0.3-1.7,0.7-3.5,0.7c-3.9,0-5.8-2.4-5.8-6c0-3.3,2.1-5.6,5.2-5.6c3.7,0,4.9,2.7,4.9,6.3h-7.9
	c0,2.2,1.7,3.7,3.7,3.7c1.4,0,2.9-0.7,3.4-1.1V178 M235.9,171.8c0-1.7-1-3.1-2.8-3.1c-2,0-2.8,1.7-3,3.1H235.9z"/>
<path class="st4" d="M247.7,176.9L247.7,176.9c-0.6,0.8-1.9,1.8-3.8,1.8c-3.4,0-4.8-3-4.8-6c0-3,1.6-5.6,4.8-5.6
	c1.9,0,3.1,0.8,3.7,1.8h0v-6.8h2.1v16.4h-2V176.9 M244.4,177c2.3,0,3.3-2.3,3.3-4.1c0-2.1-1.1-4.2-3.3-4.2c-2.2,0-3.1,2.1-3.1,4.1
	C241.3,174.6,242.2,177,244.4,177z"/>
<path class="st4" d="M257.3,162.1h2v6.8h0c0.6-1,1.7-1.8,3.7-1.8c3.2,0,4.8,2.6,4.8,5.6c0,3.1-1.4,6-4.8,6c-2,0-3.2-1-3.8-1.8h0v1.6
	h-2V162.1 M262.7,168.7c-2.2,0-3.3,2.1-3.3,4.2c0,1.9,1,4.1,3.3,4.1c2.2,0,3.1-2.5,3.1-4.2C265.8,170.8,264.9,168.7,262.7,168.7z"/>
<path class="st4" d="M268.9,181.5c0.3,0.1,0.6,0.2,1,0.2c1.8,0,2.4-2.5,2.4-2.7c0-0.2-0.3-0.8-0.4-1.2l-3.8-10.4h2.2l3,9.2h0
	l3.1-9.2h2.1l-4.1,11.4c-0.8,2.1-1.6,4.6-4.3,4.6c-0.7,0-1-0.1-1.4-0.2L268.9,181.5"/>
</svg>
