<svg width="67" height="32" viewBox="0 0 67 32" xmlns="http://www.w3.org/2000/svg"><title>Logo_WKC_solo</title><g id="Page-1" fill="none" fill-rule="evenodd"><g id="Logo_WKC_solo" transform="translate(1 1)"><path d="M35.948 13.397l.673.362c0 .051-.052.155-.052.207 0 .051-.052.155-.052.206v.104l-.051.207c0 .051-.052.155-.052.207v.827c0 .259.103.517.155.776.155.517.465.931.88 1.293l.31.259c.103.103.207.155.31.258.207.207.414.363.62.57.414.413.777.775 1.139 1.24l.31.621v.104l.052.052.103.155.155.31.052.62c-.052.156-.103.311-.207.518-.052.155-.155.31-.207.466-.052.155-.155.31-.207.465-.103.155-.155.31-.258.466l-.414.413c-.104 0-.207.052-.31.052-.052 0-.104 0-.156.052-.051 0-.103.052-.155.052-.052 0-.052.051-.103.103l-.104.104c-.051.103-.103.155-.155.258v.414h.31v.052s.052 0 0 0v-.052h.776l.776-.31c.052 0 .104-.052.207-.104.052 0 .052-.052.104-.052l.051-.051v-.155c0-.052-.051-.156-.051-.207v-.104c0-.052 0-.052.051-.103.052-.052.052-.155.104-.207.051-.104.155-.259.207-.362l.413-.724.414-.725c.052-.103.155-.258.207-.362.052-.051.052-.103.104-.155 0-.051.051-.051.051-.103L42 21.31c.103-.103.155-.207.207-.31.052-.052.052-.103.103-.155 0-.052.052-.104.052-.155v-.156c0-.051 0-.103-.052-.103v-.103l-.051-.052-.052-.052c-.052 0-.052-.052-.104-.052l-.62-.62a3.32 3.32 0 0 1-.517-.673c-.104-.103-.156-.258-.207-.362-.052-.103-.156-.258-.207-.362-.104-.258-.259-.517-.31-.776-.052-.155-.104-.258-.104-.413 0-.052-.052-.156-.052-.207V16.5c.052-.155.104-.31.155-.414.052-.103.156-.258.207-.362.155-.258.31-.465.466-.672l.517-.673c.207-.207.362-.413.569-.62.103-.104.155-.207.259-.31a.834.834 0 0 0 .207-.363c.051-.103.103-.258.155-.362.051-.103.051-.258.103-.414.052-.258.052-.569.052-.827v-.828c0-.155-.052-.258-.052-.414v-.207c0-.051 0-.155.052-.206 0-.052 0-.104.052-.207 0-.052 0-.104.051-.104l.104-.103c.051-.052.155-.052.207-.104.051 0 .155-.051.207-.051.258-.052.569-.052.827-.104.57-.052 1.086-.103 1.655-.155h.828c.259 0 .569 0 .827-.052.26 0 .57-.051.828-.051.155 0 .259 0 .414-.052.155 0 .258 0 .414-.052.258-.052.569-.103.827-.155.259-.052.57-.104.828-.155l.88-.207c.258-.052.516-.155.775-.259l.414-.155h.103c-.051-.052-.103-.052-.155-.052-.103-.051-.259-.051-.414 0-.051 0-.155 0-.207.052l-.207.052c-.258.052-.568.103-.827.155-.259.052-.57.103-.828.155-.569.052-1.086.104-1.655.155-.258 0-.569.052-.827.052h-.828c-.569 0-1.138 0-1.655.052-.155 0-.259 0-.414.051h-2.069c-.259.052-.569.052-.828.104-.31-.104-.62-.259-.93-.362l-.932-.31c-.155-.052-.31-.052-.465-.104-.155 0-.31-.052-.517-.052-.31-.051-.673-.051-.983-.051-.31 0-.673 0-.983.051-.31.052-.672.104-.983.156l-2.017.31c-.31.052-.672.103-1.034.155-.156 0-.362.052-.518.052l-.517.051c-.672.052-1.345.104-2.069.052-.362 0-.672-.052-1.034-.103l-.259-.052-.414-.103c-.207-.052-.362-.052-.517-.052-.155 0-.31-.052-.517-.052-.104 0-.155 0-.259-.052H27c-.052 0-.103-.051-.155-.051-.155-.052-.31-.155-.466-.207-.155-.052-.31-.104-.413-.104h-.156c-.051 0-.155.052-.207.052-.155.052-.31.104-.517.155-.103 0-.155.052-.258.052h-.31c-.156 0-.363.052-.518.052h-.517c-.155 0-.362-.052-.517-.104l-.26-.051-.258-.052c-.155-.052-.31-.052-.517-.104-.31-.051-.672-.155-.983-.207-.155-.051-.31-.051-.517-.103-.103 0-.155 0-.259-.052-.103 0-.155-.051-.258-.051-.31-.052-.673-.104-.983-.207-.155-.052-.31-.052-.517-.104-.104 0-.155-.052-.259-.052-.103 0-.155-.051-.258-.051 0 0-.052 0-.052-.052h-.104c-.051-.052-.103-.052-.103-.103-.052-.104-.104-.156-.104-.207h-.413c-.155 0-.362-.052-.518-.052h-1.5c-.155.052-.31.155-.465.259-.155.103-.31.155-.414.258l-.155.155-.052.052-.051.052s-.052.052-.052.103c-.052.052-.052.155-.104.207-.051.052-.051.155-.155.259l-.103.103c-.052.052-.104.052-.155.052-.104 0-.156.052-.26.052-.154 0-.361 0-.516.051h-.466c-.155 0-.31-.051-.465 0h-.259c-.103 0-.207 0-.259-.051h-.103l-.052.051c-.051.052-.051.156-.051.207-.052.155 0 .31.051.466.052.155.104.31.207.465.052.156.155.31.207.466 0 .052.052.052.052.103 0 .052.051.052.051.104 0 .051.052.051.052.103s.052.052.052.104c0 .051.052.051.103.103l.104.104a.392.392 0 0 0 .207.103c.051.052.155.052.258.103.104 0 .156.052.259.052.052 0 .103 0 .103.052h.052s.052 0 .052.052c.052.051.155.103.207.155a.392.392 0 0 0 .207.103c.103.052.155.052.258 0 .104 0 .155-.103.207-.103.052 0 .104 0 .104-.052h.103c.155 0 .362-.052.517-.052.104 0 .155 0 .259.052.103 0 .155.052.259.052.103 0 .155.052.258.052h1.035c.103 0 .155 0 .258-.052.104 0 .155-.052.259-.052h.259c.051 0 .103 0 .103.052.052 0 .103 0 .103.052.104 0 .156.051.259.051.155.052.31.052.517.104.104 0 .155.051.259.051.103.052.155.052.259.104.155.052.31.155.465.207l.466.207c.103.051.155.051.258.103.104.052.155.052.207.104.155.051.31.155.466.206.31.156.62.31.879.518.155.103.259.207.414.362l.207.207c.051.103.103.155.155.258.051.155.051.362.103.518.052.155.052.31.104.517.051.103.051.155.103.207.052.051.104.155.155.207.104.103.207.258.31.362.26.258.466.465.776.672.052.052.156.103.207.155a.392.392 0 0 0 .207.104c.052 0 .052.051.104.051l.103.104c0 .052.052.103.052.155v.155c-.052.155-.052.362-.104.517-.051.156-.103.31-.155.518l-.155.465c0 .104-.052.155-.052.259 0 .103-.051.155-.051.258-.104.31-.207.673-.31.983l-.156.466c0 .051 0 .103-.052.103v.104c0 .103-.051.155-.103.258l-.155.466c-.052.103-.052.155-.052.258 0 .104-.052.156-.052.259v.155c0 .052-.051.104-.051.155-.052.104-.104.155-.156.207-.103.155-.206.259-.31.414-.103.155-.207.259-.31.414l-.104.103-.103.104c-.052.051-.104.051-.155.051H21c-.052.052-.103.104-.207.156l-.155.155c-.052.051-.104.103-.155.207-.052.051-.104.155-.155.207v.051h.051c.052.052.155.052.207.052.155.052.31.052.517.052h1.087l.051.051-.051-.051h-.052c.052 0 .052-.052.103-.052 0 0 .052 0 .052-.052 0 0 .052 0 .052-.051.052-.052.103-.104.103-.207 0-.104.052-.156.104-.259.051-.103.103-.155.155-.207.103-.155.207-.258.31-.414l.31-.413c.052-.052.104-.156.156-.207.051-.052.103-.156.207-.207.051-.052.103-.052.103-.052.052 0 .104-.052.104-.052l.155-.155c.051-.052.051-.155.103-.207l.052-.258.155-.466c.052-.155.104-.31.207-.465v.051l-.776-.569c0-.051-.052-.103-.052-.207l-.051-.206c0-.052-.052-.104-.052-.207l-.052-.207v-.259c0-.052.052-.155.104-.207.051-.051.103-.155.155-.207 0 0 .052 0 .052-.051l.051-.052.259-.259.259-.258.517-.518c.155-.206.362-.362.569-.517h.051c.052-.052.104-.052.156-.103.051 0 .103-.052.155-.052l.103-.052s.052 0 .104-.051c.051 0 .103-.052.155-.052v.103h-.259c-.155 0-.362-.051-.517-.103l-.259-.052h-.155c-.052 0-.103-.052-.155-.052-.207-.051-.362-.155-.517-.207-.155-.051-.31-.155-.466-.206h-.155s-.052 0-.052-.052c-.103-.052-.155-.104-.258-.155a2.843 2.843 0 0 1-.466-.362c-.155-.104-.258-.259-.414-.414-.051-.052-.103-.155-.206-.207-.052-.052-.052-.104-.104-.104l-.052-.051v-.104c-.051-.103-.051-.207-.103-.31v-.31c0-.207.052-.362.103-.57.052-.155.104-.361.156-.517.051-.103.051-.155.103-.258a.395.395 0 0 0 .103-.259c.052-.103.052-.155.104-.258.052-.104.052-.156.103-.26.052-.103.052-.154.104-.258l.103-.258c.052-.155.155-.31.207-.466.104-.155.155-.31.207-.465h.052c-.052.155-.155.31-.207.465-.052.104-.052.155-.104.259-.051.103-.051.155-.103.258-.052.156-.103.31-.155.518a1.838 1.838 0 0 0-.104.517c-.051.155-.103.362-.155.517-.052.155-.103.31-.155.517a1.838 1.838 0 0 0-.103.518c0 .155 0 .362.051.517.052.052.104.155.155.207.052.051.104.155.156.207.103.155.258.258.362.362.155.103.258.207.413.31.052.052.156.104.207.155.052 0 .052.052.104.052s.103.052.103.052c.155.051.31.155.466.207.155.103.31.155.465.206.052 0 .104.052.104.052.051 0 .103 0 .103.052.104 0 .155.052.259.052.155.051.362.103.517.155h.31l-.103.052.103.155-.051.051-.052.052-.259.207c-.362.362-.724.724-1.034 1.086a5.663 5.663 0 0 1-.57.518l-.05.051s-.053 0-.053.052h-.051c-.052.052-.104.052-.104.103-.051.052-.051.104-.051.156 0 .051-.052.103-.052.155l.103.776.621.775v.052c-.052.155-.103.31-.207.466l-.155.465-.052.259c0 .103-.052.155-.103.258a.714.714 0 0 1-.155.207h-.104c-.052 0-.052.052-.103.052l-.156.155c-.051.052-.103.155-.155.207l-.31.414c-.103.155-.207.259-.31.414-.052.051-.104.103-.156.207-.051.051-.051.155-.051.207 0 .051 0 .103-.052.155a.111.111 0 0 1-.103.103l-.052.052-.052.052c-.052 0-.052.051-.103.103h-.052c-.052-.103 0-.052-.052-.052v.052h-.88c-.154 0-.361-.052-.516-.052-.104 0-.156-.051-.259-.051 0 0-.052 0-.052-.052l-.051-.052V24s0-.052.051-.052a.714.714 0 0 1 .155-.207c.052-.051.104-.155.156-.207.051-.051.103-.103.155-.206.052-.052.103-.104.207-.156l.051-.051h.466c.103 0 .155 0 .207-.052 0 0 .052-.052.052-.103 0-.052.051-.052.051-.104.104-.155.207-.259.31-.414.104-.155.208-.258.311-.414.052-.051.103-.155.155-.206.052-.052.052-.156.052-.207 0-.104.052-.155.052-.259 0-.103.051-.155.051-.259l.156-.465c.051-.104.051-.155.103-.259v-.103c0-.052 0-.104.052-.104l.155-.465c.103-.31.207-.62.31-.983 0-.103.052-.155.052-.258 0-.104.052-.156.052-.26.051-.154.103-.31.155-.516l.155-.466c.052-.155.103-.31.103-.465v-.207s0-.052-.051-.052c-.052 0-.052-.052-.104-.052a.392.392 0 0 0-.207-.103c-.051-.052-.155-.104-.207-.155-.31-.207-.568-.414-.775-.673l-.362-.362c-.052-.052-.104-.155-.156-.207-.051-.103-.051-.155-.103-.258a6.512 6.512 0 0 1-.155-.518l-.155-.465c-.052-.052-.052-.155-.104-.207l-.155-.155a2.87 2.87 0 0 0-.414-.31c-.258-.207-.569-.363-.88-.518a7.787 7.787 0 0 1-.878-.517c-.31-.155-.57-.31-.88-.466-.051-.051-.155-.051-.207-.103-.051-.052-.155-.052-.258-.052l-.466-.155c-.103 0-.155-.052-.258-.052-.052 0-.104 0-.104-.051-.052 0-.103-.052-.103-.052-.155-.052-.31 0-.466 0-.155.052-.362.052-.517.052h-.724c-.104 0-.155 0-.259-.052-.052 0-.103 0-.103-.052-.052 0-.104 0-.104-.051-.103 0-.155-.052-.258-.052-.156 0-.31 0-.518.052h-.206c-.052 0-.052.051-.104.051s-.103.052-.155.052h-.155c-.052 0-.104 0-.155-.052-.104-.051-.156-.051-.26-.155-.05-.052-.154-.103-.206-.155h-.155c-.104 0-.155 0-.259-.052-.103 0-.155-.052-.258-.103-.104-.052-.156-.104-.207-.155-.052 0-.052-.052-.104-.104l-.103-.103c-.052 0-.052-.052-.104-.104l-.103-.103c0-.052-.052-.052-.052-.104 0-.051-.052-.051-.052-.103-.103-.155-.155-.31-.258-.466-.052-.051-.052-.155-.104-.207-.051-.103-.051-.155-.103-.258-.052-.155-.103-.362-.052-.57 0-.103.052-.154.104-.258 0 0 0-.051.051-.051 0 0 .052-.052.104-.052h.672c.207-.052.362 0 .518 0h.465c.155 0 .362 0 .517-.052.104 0 .155 0 .259-.052.052 0 .052 0 .103-.051l.052-.052c.052-.052.052-.104.104-.207.051-.052.051-.155.103-.259 0-.051.052-.103.103-.103l.052-.052.052-.052.052-.051.206-.155c.156-.104.31-.156.414-.259.155-.103.31-.155.466-.259 0 0 .052 0 .052-.051h.206c.104 0 .156 0 .259-.052h1.035c.155 0 .362 0 .517.052H18c.052 0 .052.051.103.051.052.052.104.104.104.156 0 .051.052.051.052.103.051.052.051.052.155.103.052 0 .155.052.207.052.103 0 .155.052.258.052.155.052.31.052.518.103l.517.104c.155.051.31.051.517.103.103 0 .155.052.259.052.103 0 .155 0 .258.052.155.051.362.051.518.103.31.052.672.104.982.155.155.052.31.052.518.104l.517.103c.31.052.672.104.983.052.155 0 .31 0 .517-.052.103 0 .155 0 .258-.052.104 0 .156-.051.259-.051l.466-.155c.155-.052.362-.104.517-.104.207 0 .362.052.517.155.155.052.31.155.466.207.051 0 .051.052.103.052h.103c.052 0 .156 0 .259.052.155 0 .362.051.517.051.362.052.673.104 1.035.156.31.051.672.103.983.103.672 0 1.344 0 2.017-.052L33 7.966c.155 0 .31-.052.517-.052.31-.052.673-.104.983-.155l2.017-.31c.362-.052.673-.104 1.035-.104.362-.052.672-.052 1.034-.052s.673.052 1.035.052c.155 0 .362.052.517.052.155.051.362.051.517.103l.466.155c.155.052.31.104.465.207.31.104.62.259.931.362h-.051c.258-.052.568-.052.827-.103h2.483c.569 0 1.138-.052 1.655-.052h.828c.258 0 .569 0 .827-.052.57-.051 1.086-.103 1.655-.155.259-.052.57-.103.828-.103.259-.052.569-.104.828-.156l.206-.051c.052 0 .156-.052.207-.052h.414c.052 0 .155.052.207.103l.052.052v.104l-.052.051h-.052l-.413.156c-.26.103-.518.155-.828.206-.155.052-.259.052-.414.104l-.414.103c-.258.052-.569.104-.827.155-.259.052-.57.104-.828.156-.258.051-.569.051-.827.051-.259 0-.57.052-.828.052-.259 0-.569.052-.828.052h-.827c-.57.052-1.086.103-1.655.155-.259.052-.57.052-.828.103-.052 0-.155 0-.207.052-.052 0-.155.052-.207.052-.051 0-.051.052-.051.052s-.052.051-.052.103 0 .155-.052.207v.414c0 .155.052.258.052.414v.827c0 .259 0 .57-.052.828 0 .155-.052.258-.103.414-.052.155-.104.258-.156.413-.258.466-.672.931-1.034 1.345-.31.466-.672.88-.931 1.345-.052.103-.155.259-.207.362-.052.103-.103.259-.155.362v.207c0 .052 0 .155.052.207.051.155.051.259.103.414l.31.776c.104.258.259.517.414.724.155.207.31.465.517.672.156.207.363.414.57.57l.155.154c.051 0 .051.052.103.052 0 .052.052.052.052.103v.414c-.052.155-.104.259-.155.414a1.572 1.572 0 0 1-.259.362c0 .052-.052.052-.052.104 0 .051-.051.051-.051.103-.052.052-.104.103-.104.155-.052.104-.155.207-.207.362-.155.259-.258.466-.414.724l-.465.724c-.052.104-.155.26-.207.363-.052.051-.052.103-.103.155 0 .051-.052.051-.052.103v.414c0 .052 0 .103-.052.103l-.103.104c-.052 0-.052.052-.104.052-.052.051-.103.051-.207.103l-.776.259h-.775v-.052h.051v.052h-.414v-.414c.052-.104.104-.155.156-.259.051-.051.051-.103.103-.103l.104-.104.051-.051H39c.052 0 .103-.052.155-.052.104 0 .207-.052.31-.052l.414-.414.88-1.965v-.62l-.207-.311-.104-.155-.051-.052v-.104l-.363-.62c-.206-.207-.362-.414-.568-.62-.207-.208-.414-.363-.621-.57l-1.242-1.086a2.205 2.205 0 0 1-.569-.62c-.155-.208-.31-.466-.362-.725a2.144 2.144 0 0 1-.155-.827v-.414c0-.155 0-.259.052-.414l.155-.414.052-.207c0-.051.052-.155.103-.207l-.93-.413z" id="Shape" fill="#FFC20E" fill-rule="nonzero"/><path d="M20.586 24.31h.104c.465.104 2.172.259 3.413 0 1.294-.31 2.742-.62-.103-.465-.414 0-1.603.052-1.603.052s-.414.31-.673.413" id="Shape" fill="#FFC20E" fill-rule="nonzero"/><path d="M20.586 24.31h.104c.465.104 2.172.259 3.413 0 1.294-.31 2.742-.62-.103-.465-.414 0-1.603.052-1.603.052s-.414.31-.673.413" id="Shape" fill="#FFC20E" fill-rule="nonzero"/><path d="M20.586 24.31h.104c.465.104 2.172.259 3.413 0 1.294-.31 2.742-.62-.103-.465-.414 0-1.603.052-1.603.052s-.414.31-.673.413" id="Shape" stroke="#FFC20E" stroke-width=".07"/><path d="M38.431 25.19h.103c.725.103 1.656 0 2.432-.104.827-.103 2.948-.207 2.69-.414-.208-.206-2.328-.155-2.69-.155-.363 0-.207-.051-.363.104-.155.155-.517.31-.93.413" id="Shape" fill="#FFC20E" fill-rule="nonzero"/><path d="M38.431 25.19h.103c.725.103 1.656 0 2.432-.104.827-.103 2.948-.207 2.69-.414-.208-.206-2.328-.155-2.69-.155-.363 0-.207-.051-.363.104-.155.155-.517.31-.93.413" id="Shape" fill="#FFC20E" fill-rule="nonzero"/><path d="M38.431 25.19h.103c.725.103 1.656 0 2.432-.104.827-.103 2.948-.207 2.69-.414-.208-.206-2.328-.155-2.69-.155-.363 0-.207-.051-.363.104-.155.155-.517.31-.93.413" id="Shape" stroke="#FFC20E" stroke-width=".07"/><path d="M48.414 23.948c2.638.104 2.638-.362 3.672-.414.517-.051 2.173-.362 1.138-.362-.465 0-1.758-.103-1.655-.103.31 0-1.707-.155-1.914 0-.103.103-.258.207-.362.31-.103.104-.103.155-.207.207-.155.052-.052.155-.362.207-.103-.052-.31.155-.31.155" id="Shape" fill="#FFC20E" fill-rule="nonzero"/><path d="M48.414 23.948c2.638.104 2.638-.362 3.672-.414.517-.051 2.173-.362 1.138-.362-.465 0-1.758-.103-1.655-.103.31 0-1.707-.155-1.914 0-.103.103-.258.207-.362.31-.103.104-.103.155-.207.207-.155.052-.052.155-.362.207-.103-.052-.31.155-.31.155" id="Shape" fill="#FFC20E" fill-rule="nonzero"/><path d="M48.414 23.948c2.638.104 2.638-.362 3.672-.414.517-.051 2.173-.362 1.138-.362-.465 0-1.758-.103-1.655-.103.31 0-1.707-.155-1.914 0-.103.103-.258.207-.362.31-.103.104-.103.155-.207.207-.155.052-.052.155-.362.207-.103-.052-.31.155-.31.155" id="Shape" stroke="#FFC20E" stroke-width=".07"/><path d="M24.466 20.534l.93.621.363.724.775.466h-.051c.103 0 .207-.052.258-.052.052 0 .104-.052.156-.052.051 0 .103-.051.103-.051 0-.052-.052-.052-.052-.104-.051-.052-.155-.103-.207-.207v-.051l-.051-.207v-.207L26.586 21v.052l-.31-.362-.155-.259.051.052-.465-.31-.414-.207h-.052v-.052l-.155-.362V19.5l.052-.052.672-.569.931-.465c.362-.259.776-.517 1.138-.776l.776-.62.362-.415.673-.413-.052.051v-.207c0-.051 0-.051-.052-.103l-.052-.052-.206-.155-.414-.362c-.207-.207-.362-.465-.57-.672-.103-.052-.154-.156-.258-.207-.052-.052-.103-.052-.155-.104-.052-.051-.103-.051-.155-.103.052 0 .103.052.155.103.052.052.103.052.155.104.104.051.207.103.31.207.207.207.414.413.621.672l.414.362.207.155c.052 0 .103.052.103.104.052.051.052.103.052.103v.259h-.052l-.62.414-.362.413-.776.621c-.362.259-.776.517-1.138.776l-.931.465-.673.57.052-.104.155.362-.051-.052.827.414.155.259.31.362.052.414v.207l.052.206.052.052a.404.404 0 0 1 .207.207c.051.052.051.103.103.155v.104c0 .051-.052.051-.052.103-.051.052-.103.052-.155.052-.051 0-.103.052-.155.052-.103 0-.207.051-.31.051l-.776-.517-.362-.776-.466-.31-.413-.31z" id="Shape" fill="#FFC20E" fill-rule="nonzero"/><path d="M29.069 16.552c.052 0 .052 0 .103.051h.31c.156 0 .311-.051.466-.103l.466-.155c.155-.052.31-.104.414-.207.31-.155.569-.259.827-.414.155-.052.259-.155.414-.207.155-.103.259-.155.414-.258.155-.104.31-.156.465-.207.052 0 .104 0 .104-.052h.103l.259-.052.93-.155c.156-.052.311-.052.466-.103.156 0 .31-.052.466-.052.31 0 .62-.052.983 0v.052l-.931.155c-.156.052-.31.052-.466.103-.155.052-.31.052-.465.104l-.931.207-.207.051h-.104c-.052 0-.052 0-.103.052a1.549 1.549 0 0 0-.414.207c-.259.155-.569.31-.828.465-.31.156-.569.26-.879.414-.31.104-.62.207-.931.259-.155.052-.31.052-.466.052h-.258c-.052 0-.104 0-.104-.052-.051-.052-.103-.052-.103-.155zm13.862-6.362c.103.155.155.31.259.465.103.155.155.31.207.517.051.207.155.362.206.518.052.103.052.155.104.258a.466.466 0 0 1 .052.259c0 .207.051.362.051.569 0 .207.052.362.052.569 0 .155.052.362.104.517 0 .104.051.155.103.259l.155.258c.155.31.362.621.57.931.103.156.206.31.361.414.052.052.104.155.207.207.052.052.104.155.155.207.052.052.104.155.155.207.052.052.104.103.207.155l.466.31c.155.104.31.156.465.259.156.103.31.155.466.259.103.051.155.103.258.155.104.051.156.103.26.103.154.052.361.104.516.155h.104s.052 0 .052.052c.051.052.051.104.103.104.052.103.052.155.103.258v.052c.104 0-.155.052-.103.052v-.052c.259-.052.052 0 .103 0l.052.155.104.259c.051.155.103.362.155.517 0 .052 0 .103.051.103 0 .052.052.104.052.104.052.103.052.155.104.258.051.156.155.363.207.518a.466.466 0 0 1 .051.258c0 .104.052.155.052.259.052.155.155.31.207.517 0 .052.052.104.052.155 0 .052 0 .104.051.104.052.103.052.155.104.258.103.156.155.31.258.518 0 .051.052.103.052.155 0 .052.052.103.052.155v.103c0 .052-.052.052-.052.052-.052.052-.052.052-.052.104-.051.051-.103.155-.155.207l-.103.103c-.052.052-.052.052-.052.103 0 .052-.052.104-.052.104s0 .052-.051.052c0 0 0 .051-.052.051h-.104s-.051 0-.051-.051c-.052 0-.052 0-.104.051 0 .052-.051.104-.051.104v.051h-.104c-.103 0-.155.052-.259.052-.155.052-.31.155-.465.259a.395.395 0 0 0-.103-.259v-.62c0-.052.051-.104.051-.156l.466-.362c0-.103 0-.258.051-.362v-.362c0-.052 0-.103-.051-.155 0-.052-.052-.103-.052-.155l-.155-.31a3.858 3.858 0 0 0-.362-.621c-.052-.052-.052-.104-.104-.155-.051-.052-.051-.104-.103-.156a1.128 1.128 0 0 0-.207-.258c-.155-.155-.31-.362-.466-.517l-.258-.26c-.104-.05-.155-.154-.259-.206l-.051-.052-.104-.051-.155-.104-.31-.155-1.242-.62c-.052 0-.103-.052-.155-.052-.052 0-.103-.052-.155-.052-.104-.052-.207-.104-.31-.104-.207-.103-.466-.155-.673-.258l-.62-.31c-.414-.26-.776-.518-1.19-.776-.052-.052-.104-.052-.155-.104l-.052-.052s-.052-.051-.104-.051c-.103-.052-.207-.156-.31-.207l-.259-.259c-.103-.103-.155-.155-.258-.207l.052-.103a.623.623 0 0 1 .258.258l.259.259c.103.052.155.155.258.207l.052.052c.052 0 .052.051.104.051.051.052.103.052.155.104.414.258.776.569 1.19.776l.62.31c.207.103.414.155.672.259.104.051.207.103.31.103l.156.052c.052 0 .103.052.155.052l1.552.775.155.104.104.052c.051 0 .051.051.103.051.103.052.207.155.259.207l.258.259c.155.155.31.362.466.517.051.104.155.207.207.259.051.051.051.103.103.155.052.052.052.103.104.155l.465.931c0 .052.052.104.052.155 0 .052.051.104.051.155v.362c0 .104 0 .26-.051.363l-.466.362a.395.395 0 0 0-.103.258v.31h.052v.104c.051.103.051.207.103.259h-.052c.052-.052.155-.104.259-.156.103-.051.155-.103.258-.103.104-.052.156-.052.26-.103h.103v-.052l.051-.052s0-.052.052-.052l.052-.051h.103c.052 0 .052 0 .052.051l.052-.051v-.052c0-.052.051-.103.051-.155 0-.052.052-.104.052-.104 0-.051.052-.103.052-.103 0-.052.052-.104.052-.104s0-.051.051-.051c0 0 0-.052.052-.052 0-.052.052-.103.103-.103 0 0 0-.052.052-.052v-.259c-.052-.155-.155-.31-.258-.465-.052-.104-.104-.155-.104-.259 0-.052-.052-.103-.052-.155 0-.052-.051-.104-.051-.104-.052-.155-.156-.31-.207-.517-.052-.103-.052-.155-.104-.258 0-.104-.051-.156-.103-.259-.052-.155-.155-.31-.207-.517-.052-.104-.052-.155-.104-.259 0-.052-.051-.103-.051-.155 0-.052-.052-.104-.052-.155-.052-.155-.103-.362-.155-.517l-.052-.26-.052-.154c.052 0-.103.051.104-.052v.052s-.207.051-.104.051v-.051c0-.104-.051-.155-.103-.259 0-.052-.052-.103-.052-.103h-.051c-.156-.052-.363-.104-.518-.156l-.258-.103-.259-.103c-.155-.052-.362-.156-.517-.207l-.259-.104c-.103-.051-.155-.051-.258-.103a2.416 2.416 0 0 1-.518-.259c-.103-.052-.155-.103-.258-.207a1.128 1.128 0 0 1-.207-.258c-.052-.104-.104-.156-.155-.207l-.156-.155c-.155-.156-.258-.31-.362-.466l-.31-.465c-.103-.156-.207-.31-.259-.518l-.103-.258c-.052-.104-.103-.207-.103-.31-.052-.208-.052-.363-.104-.57 0-.207 0-.362-.052-.569v-.62c0-.052 0-.104-.051-.104 0-.103-.052-.155-.052-.258-.052-.156-.104-.362-.155-.518-.052-.155-.104-.362-.207-.517-.31-.103-.362-.258-.414-.465zM15.828 6.983c-.052.103-.104.207-.104.31 0 .104.052.207.104.259l.103.103c.052 0 .103.052.155.052.104.052.207.052.31.155.052.052.104.052.156.104 0 0 .051.051.051.103v.414c0 .207-.051.414-.103.62-.052.207-.052.414-.103.621v.31s0 .052.051.052l.052.052c0 .052.052.103.052.155.051.104.103.207.155.259.052.051.155.155.207.103h.103c.052 0 .104-.052.155-.052a.404.404 0 0 0 .207-.206c.052-.052.155-.156.207-.26.052-.103.104-.154.155-.258a1.13 1.13 0 0 1 .156-.258c.051-.052.051-.104.103-.104l.052-.051.051-.052c.052-.104.104-.155.104-.259 0-.103 0-.207.052-.31 0-.052.051-.104.051-.155 0-.052.052-.104.052-.156.052-.051.052-.103.104-.155.051-.051.051-.103.103-.103 0-.052.052-.104.052-.155 0-.052 0-.104-.052-.155-.052-.104-.052-.207-.155-.26-.052-.05-.155-.103-.259-.154-.052 0-.103-.052-.155-.052h-.052s-.051 0-.051.052h-.104c-.052 0-.052 0-.103-.052-.052-.052-.104-.052-.104-.103-.103-.052-.155-.104-.258-.156h-.31c-.104 0-.208.052-.311 0V7.19c.103 0 .207 0 .31-.052.104 0 .207-.052.362 0h.104c.051 0 .051 0 .103.052.052 0 .104.051.155.103.052.052.104.052.104.104h.052s.051 0 .103-.052h.31c.052 0 .104.052.156.052.051.051.103.051.155.103.051.052.103.103.103.155.052.052.052.104.052.155 0 .052.052.104.052.207 0 .052 0 .155-.052.259-.052.052-.052.103-.104.155-.051.052-.051.103-.051.103 0 .052-.052.052-.052.104s0 .052-.052.103c0 .104 0 .156-.051.31 0 .052 0 .104-.052.208a.392.392 0 0 1-.104.207c0 .051-.051.051-.051.103v.052l-.104.103a1.13 1.13 0 0 0-.155.259c-.052.051-.052.103-.103.155-.052.052-.052.103-.104.155-.052.104-.155.155-.207.259-.103.103-.155.155-.31.207-.052.051-.104.051-.155.051h-.207c-.052 0-.155-.051-.207-.051-.052-.052-.104-.104-.104-.156l-.155-.31c0-.052-.051-.103-.051-.155l-.052-.052s0-.052-.052-.052c-.052-.103-.052-.206-.052-.31 0-.207.052-.414.052-.62.052-.207.052-.414.104-.621v-.414s0-.052-.052-.052c0-.051-.052-.051-.104-.103a1.13 1.13 0 0 1-.258-.155c-.052 0-.104-.052-.155-.052l-.052-.052-.052-.052c-.052-.051-.052-.103-.103-.155v-.155c.103-.103.155-.207.207-.31zM12.672 10.707c.104 0 .362 0 .414.052.104.051.207 0 .259 0l.103.051-.051.052c-.052.052-.052.104-.156.104-.103 0-.31-.104-.362-.104 0-.052-.207-.155-.207-.155" id="Shape" fill="#FFC20E" fill-rule="nonzero"/><path d="M12.672 10.707h.725c.051 0 .051.052.103.052v.103l-.052.052-.051.052h-.156c-.051 0-.103 0-.103-.052-.052 0-.104-.052-.104-.052s-.051 0-.051-.052c-.207 0-.259-.051-.31-.103zm.052 0c.052.052.104.052.155.103h.052c.052 0 .052.052.103.052h.26l.05-.052c-.05 0-.05 0-.103-.051h-.31c-.052 0-.155-.052-.207-.052.104 0 .052 0 0 0zm1.707-2.431c.052 0 .103.052.103.103l.104.104c.052.051.052.103.103.103.052.052.052.104.052.155v.104h-.207c-.103 0-.207-.104-.258-.207-.052-.104-.052-.207 0-.259v-.051s0-.052.051-.052l.052-.052c-.052.052-.052 0 0 .052zm0 0h-.052l-.051.052v.103c0 .103 0 .155.051.207.052.052.104.103.155.103h.104v.052c0-.052 0-.103-.052-.155 0-.052 0-.104-.052-.155 0-.052-.051-.104-.051-.104 0-.051-.052-.103-.052-.103zm-2.638-.31a.714.714 0 0 1 .155.206c.052.052.052.156.052.207v.155c0 .052-.052.104-.052.104-.051.052-.051.052-.103.052s-.052.051-.052.103c0-.052 0-.052.052-.103.052-.052.052-.052.052-.104V8.38c0-.051 0-.051-.052-.103l-.052-.104a.157.157 0 0 0 0-.206zM20.38 7.293c.051.828-.57 3.828-1.139 4.5l-.62-.259c.258-.413.672-1.5.827-2.12.155-.62.362-1.914.362-2.173l.57.052" id="Shape" fill="#FFC20E" fill-rule="nonzero"/><path d="M20.38 7.293c.051.828-.57 3.828-1.139 4.5l-.62-.259c.258-.413.672-1.5.827-2.12.155-.62.362-1.914.362-2.173l.57.052" id="Shape" fill="#FFC20E" fill-rule="nonzero"/><path d="M20.38 7.293c.051.828-.57 3.828-1.139 4.5l-.62-.259c.258-.413.672-1.5.827-2.12.155-.62.362-1.914.362-2.173l.57.052" id="Shape" stroke="#FFC20E" stroke-width=".07" stroke-linecap="round"/><path d="M20.586 24.31c0-.103.052-.207.104-.31a1.13 1.13 0 0 1 .155-.259l.052-.051s.051-.052.103-.052c.052-.052.103-.052.207-.052h.155c.052 0 .104 0 .155-.052-.051.052-.103.052-.155.104-.052 0-.103.052-.155.052-.052 0-.104 0-.104.051-.051 0-.051.052-.103.104s-.103.155-.207.258l-.207.207zm.724 0c-.051-.051-.051-.051-.051-.103v-.104c0-.051 0-.103.051-.155l.104-.103v.31c-.052.104-.052.155-.104.155 0 .052 0 .052 0 0 0 .052 0 .052 0 0zm.57 0c-.052 0-.104-.051-.104-.051l-.052-.052s0-.052-.052-.052v-.103c0-.052.052-.052.052-.052s.052 0 .052-.052h.052v.104s.051.051.051.103c.052.052.052.104 0 .155zm4.913-2.534c0 .103-.052.155-.103.155 0 0-.052 0-.052.052 0 0-.052 0-.104.051-.051 0-.103.052-.206.052h-.104c-.052 0-.052-.052-.103-.052-.052 0-.052-.051-.052-.051l-.052-.052v-.052l-.051-.051s-.052-.052-.052-.104c-.052-.103-.104-.207-.104-.31.052.052.052.103.104.103.052.052.052.104.103.104l.207.207c.052 0 .052.051.104 0 .051 0 .103 0 .103-.052 0 0 .052 0 .052-.052 0 0 .051 0 .051-.052.156.052.207.052.26.104zm21.62 2.12c0-.103 0-.206-.05-.362l-.053-.155v-.258c0-.052 0-.052.052-.104 0 0 0-.051.052-.051l.052-.052s.051-.052.103-.052c.052-.052.103-.052.155-.103.052-.052.104-.052.155-.104-.051.052-.051.104-.103.155-.052.052-.104.104-.155.104l-.052.052h-.052c0 .051-.051.103-.051.155 0 .103.051.207.051.362-.103.155-.103.31-.103.414zM21.414 12.88c.155.258.31.775.362.982.052.207.62.259.672.414.052.155-.103-.517-.051-.828.051-.31-.207-.362-.414-.465a8.054 8.054 0 0 0-.776-.31 3.444 3.444 0 0 1-.362-.156l.569.362z" id="Shape" fill="#FFC20E" fill-rule="nonzero"/><path d="M21.414 12.88c.155.258.31.775.362.982.052.207.62.259.672.414.052.155-.103-.517-.051-.828.051-.31-.207-.362-.414-.465a8.054 8.054 0 0 0-.776-.31 3.444 3.444 0 0 1-.362-.156l.569.362z" id="Shape" fill="#FFC20E" fill-rule="nonzero"/><path d="M21.414 12.88c.155.258.31.775.362.982.052.207.62.259.672.414.052.155-.103-.517-.051-.828.051-.31-.207-.362-.414-.465a8.054 8.054 0 0 0-.776-.31 3.444 3.444 0 0 1-.362-.156l.569.362z" id="Shape" stroke="#FFC20E" stroke-width=".07"/><path d="M38.793 25.19l.155-.518s.362-.206.518-.31c0 0-.466.155-.57.207-.103.052-.258.362-.31.465-.052.104-.103 0-.155.104l.362.052z" id="Shape" fill="#FFC20E" fill-rule="nonzero"/><path d="M38.793 25.19l.155-.518s.362-.206.518-.31c0 0-.466.155-.57.207-.103.052-.258.362-.31.465-.052.104-.103 0-.155.104l.362.052z" id="Shape" fill="#FFC20E" fill-rule="nonzero"/><path d="M38.793 25.19l.155-.518s.362-.206.518-.31c0 0-.466.155-.57.207-.103.052-.258.362-.31.465-.052.104-.103 0-.155.104l.362.052z" id="Shape" stroke="#FFC20E" stroke-width=".07" stroke-linecap="round"/><path id="Shape" fill="#FFC20E" fill-rule="nonzero" d="M39.103 25.086l.156-.258-.052.31z"/><path id="Shape" fill="#FFC20E" fill-rule="nonzero" d="M39.103 25.086l.156-.258-.052.31z"/><path id="Shape" stroke="#FFC20E" stroke-width=".07" stroke-linecap="round" d="M39.103 25.086l.156-.258-.052.31z"/><path id="Shape" fill="#FFC20E" fill-rule="nonzero" d="M39.517 25.086l.155-.31-.051.31z"/><path id="Shape" fill="#FFC20E" fill-rule="nonzero" d="M39.517 25.086l.155-.31-.051.31z"/><path id="Shape" stroke="#FFC20E" stroke-width=".07" stroke-linecap="round" d="M39.517 25.086l.155-.31-.051.31z"/><path id="Shape" fill="#FFC20E" fill-rule="nonzero" d="M38.534 24.517l.26-.207.258-.051-.621.31"/><path id="Shape" fill="#FFC20E" fill-rule="nonzero" d="M38.534 24.517l.26-.207.258-.051-.621.31"/><path id="Shape" stroke="#FFC20E" stroke-width=".07" stroke-linecap="round" d="M38.534 24.517l.26-.207.258-.051-.621.31"/><path id="Shape" fill="#FFC20E" fill-rule="nonzero" d="M39.88 24.983l.051-.259v.207"/><path id="Shape" fill="#FFC20E" fill-rule="nonzero" d="M39.88 24.983l.051-.259v.207"/><path id="Shape" stroke="#FFC20E" stroke-width=".07" stroke-linecap="round" d="M39.88 24.983l.051-.259v.207"/><path d="M38.276 25.086v.207c.052.052.052-.103.155-.155.103-.052-.155-.052-.155-.052" id="Shape" fill="#FFC20E" fill-rule="nonzero"/><path d="M38.276 25.086v.207c.052.052.052-.103.155-.155.103-.052-.155-.052-.155-.052" id="Shape" fill="#FFC20E" fill-rule="nonzero"/><path d="M38.276 25.086v.207c.052.052.052-.103.155-.155.103-.052-.155-.052-.155-.052z" id="Shape" stroke="#FFC20E" stroke-width=".07"/><path d="M38.586 25.086v.259c.052.052.052-.155.155-.207.104-.052-.155-.052-.155-.052" id="Shape" fill="#FFC20E" fill-rule="nonzero"/><path d="M38.586 25.086v.259c.052.052.052-.155.155-.207.104-.052-.155-.052-.155-.052" id="Shape" fill="#FFC20E" fill-rule="nonzero"/><path d="M38.586 25.086v.259c.052.052.052-.155.155-.207.104-.052-.155-.052-.155-.052z" id="Shape" stroke="#FFC20E" stroke-width=".07"/><path d="M12.259 8.017c.465.052.827.104 1.138.052.31-.052.62.103.775-.155.207-.259.31-.466.621-.776.31-.31.362-.517.57-.672.361-.207.62-.104 1.034-.104.362-.052.517.104.672 0 .155-.103.207.052.259.052.051 0-1.035.052-1.449.052-.62 0-.724.051-1.086.31-.259.207-.776.31-.88.465-.05.156-.258.621-.516.621-.26.052-.621.052-.828.052-.207 0-.672.052-.724 0-.104 0 .414.103.414.103" id="Shape" fill="#FFC20E" fill-rule="nonzero"/><path d="M12.259 8.017c.258.052.517.052.775.052h.828c.052 0 .104 0 .207-.052.052 0 .103-.051.155-.103.052-.104.155-.207.207-.31.052-.104.155-.207.259-.31l.31-.311c.103-.104.155-.207.259-.31.051-.052.051-.104.103-.156.052-.051.104-.103.155-.103a.959.959 0 0 1 .362-.104h1.035c.052 0 .103.052.207.052h.103s.052-.052.104-.052h.103c.052 0 .052.052.103.052v.052h-1.913a.959.959 0 0 0-.362.103c-.104.052-.207.155-.31.207-.208.155-.466.207-.673.362-.052 0-.052.052-.052.052l-.052.052c0 .051-.051.103-.103.155-.052.103-.103.258-.207.31-.052.052-.103.104-.155.104H13.5c-.155 0-.259 0-.414.051-.155 0-.258 0-.362.052-.155 0-.258 0-.414.052h-.155l-.052-.052H12h.259c-.104.104-.052.155 0 .155zm0 0c-.052 0-.104-.051-.207-.051-.052 0-.104-.052-.207-.052h-.052.31c.156 0 .26 0 .414-.052.104 0 .259 0 .414-.052.155 0 .259 0 .414-.051h.207c.051 0 .103-.052.155-.104.103-.103.155-.207.207-.31.052-.052.052-.104.052-.155v-.052s0-.052.051-.052c0 0 .052-.052.104-.052.207-.155.465-.206.672-.362.104-.051.207-.155.31-.206a.959.959 0 0 1 .363-.104h1.965v.052h-.052c-.051 0-.051-.052-.051-.052h-.104c-.052 0-.052 0-.103.052h-.104c-.051 0-.155 0-.207-.052h-.982a.959.959 0 0 0-.362.104c-.052.051-.104.051-.156.103-.051.052-.103.103-.103.155-.052.104-.155.207-.259.31l-.31.31c-.104.104-.155.208-.259.311a1.082 1.082 0 0 0-.207.31c-.051.052-.103.104-.155.104-.051 0-.155.052-.207.052h-.776c-.258 0-.517-.052-.775-.104zM22.603 14.38c-.155.413.776 1.603 1.087 1.81.31.207.362.31.207.93-.156.621-.414 1.5-.518 1.914-.155.414-.31.983-.362 1.138-.051.156.31-.051.362.362.052.466.259.518.104.932-.155.413-.362.413-.517.827-.156.414-.414.052-.414.57 0 .465-.155.62-.155.723-.052.104.569-.62.775-.88.207-.258.518-.516.673-.775.258-.465.207-.776.362-1.086l.155-.362-.569-.724-.103-.88s.413-.517.776-.879l.724-.724c.31-.31.776-.724 1.034-.776 0 0-.517-.207-.983-.259-.413-.051-1.396-.672-1.655-.827-.258-.155-.983-1.035-.983-1.035" id="Shape" fill="#FFC20E" fill-rule="nonzero"/><path d="M22.603 14.38c-.155.413.776 1.603 1.087 1.81.31.207.362.31.207.93-.156.621-.414 1.5-.518 1.914-.155.414-.31.983-.362 1.138-.051.156.31-.051.362.362.052.466.259.518.104.932-.155.413-.362.413-.517.827-.156.414-.414.052-.414.57 0 .465-.155.62-.155.723-.052.104.569-.62.775-.88.207-.258.518-.516.673-.775.258-.465.207-.776.362-1.086l.155-.362-.569-.724-.103-.88s.413-.517.776-.879l.724-.724c.31-.31.776-.724 1.034-.776 0 0-.517-.207-.983-.259-.413-.051-1.396-.672-1.655-.827-.258-.155-.983-1.035-.983-1.035" id="Shape" fill="#FFC20E" fill-rule="nonzero"/><path d="M22.603 14.38c-.155.413.776 1.603 1.087 1.81.31.207.362.31.207.93-.156.621-.414 1.5-.518 1.914-.155.414-.31.983-.362 1.138-.051.156.31-.051.362.362.052.466.259.518.104.932-.155.413-.362.413-.517.827-.156.414-.414.052-.414.57 0 .465-.155.62-.155.723-.052.104.569-.62.775-.88.207-.258.518-.516.673-.775.258-.465.207-.776.362-1.086l.155-.362-.569-.724-.103-.88s.413-.517.776-.879l.724-.724c.31-.31.776-.724 1.034-.776 0 0-.517-.207-.983-.259-.413-.051-1.396-.672-1.655-.827-.258-.155-.983-1.035-.983-1.035z" id="Shape" stroke="#FFC20E" stroke-width=".07" stroke-linecap="round"/><path d="M28.034 14.38c.31 0 .518.206.776.568.259.362.88.828 1.087.983.206.155.569.31.93.31.363-.051-.672.31-.879.362-.31.104-1.19.052-1.19.052.776-.052.88-.258.932-.569.051-.258-.362-.465-.931-1.034-.207-.207-.725-.673-.725-.673" id="Shape" fill="#FFC20E" fill-rule="nonzero"/><path d="M28.034 14.38c.31 0 .518.206.776.568.259.362.88.828 1.087.983.206.155.569.31.93.31.363-.051-.672.31-.879.362-.31.104-1.19.052-1.19.052.776-.052.88-.258.932-.569.051-.258-.362-.465-.931-1.034-.207-.207-.725-.673-.725-.673" id="Shape" fill="#FFC20E" fill-rule="nonzero"/><path d="M28.034 14.38c.31 0 .518.206.776.568.259.362.88.828 1.087.983.206.155.569.31.93.31.363-.051-.672.31-.879.362-.31.104-1.19.052-1.19.052.776-.052.88-.258.932-.569.051-.258-.362-.465-.931-1.034-.207-.207-.725-.673-.725-.673z" id="Shape" stroke="#FFC20E" stroke-width=".07"/><path d="M29.172 8.845s-.362.103-.517.052c-.155-.052-.155-.156-.362-.156s-.362.052-.569.052c-.207.052-.88-.207-.88-.207l.363.31-.155.052s.31.104.465.207c.207.104.362.259.259.517-.155.259-.052.31-.31.31-.26 0-.156-.206-.26 0-.103.208-.154.26-.465.156-.31-.104-.362-.104-.517-.31-.155-.207-.207-.414-.362-.414s-.569-.207-.414-.104c.104.104.31.156.31.362 0 .156-.103.207.156.31.258.156.414.104.517.311.103.207.466.414.155.362-.31 0-.517-.362-.465-.103.051.258 0 .155.051.517.052.31.052.155.104.569 0 .414 0 .569.155.776.155.207.362.414.155.31-.258-.052-.672-.31-.465-.155.207.103.155.259.517.465.362.207.517-.051.62.104.104.207-.051.259.104.362.207.155.362.207.569.052.207-.155.259-.259.466-.155.258.103-.052.103.155-.207s.362-.052.362-.362-.207-.466.155-.31c.362.154.517.258.672.206l.31-.103s-.361.103-.31-.31c.052-.414-.207-.725.207-.466.414.258.414.414.57.62.154.207.31.466.413.207.103-.258-.31-.258 0-.465.31-.155.259 0 .517-.104.31-.103.362 0 .466-.103.052-.103-.673-.052-.62-.259 0-.207.258-.207.103-.31-.156-.103-.466.155-.414-.155.051-.259.207-.207.517-.155.31.051.569.051.672.31.104.259.052.414.362.414s.26.103.673.052c.465-.052.569.103.569.103l-.466.155s.156.207.362.259c.207.103.207.207.57.155.361-.052.517.103.672.103.207 0-.155-.051-.207-.206-.052-.207-.052-.363.207-.156.258.207.362.31.362.31s-.207-.206.052-.31l.206-.103s-.051-.104.156-.052l.207.104s-.052-.156-.052-.31c0-.208-.155-.208.103-.208.259-.051.414-.258-.155-.207-.517.104-.569.31-.827.207l-.31-.155s.103 0 .154-.207c.052-.207-.051-.258-.207-.362-.155-.155 0-.051.052-.258.052-.207-.155-.207-.052-.362.104-.156.156-.104.207-.156.104 0-.207-.155-.362-.155s-.207-.155-.051-.207c.155-.051.206-.207-.052-.155-.259.052-.31.104-.517.104-.207-.052-.31-.207-.362-.104-.052.155.051.259-.156.31-.207.052-.258-.155-.258.052s.155.259-.052.31c-.259.052-.259.052-.414.31-.103.26.259.363-.103.26-.362-.104-.466.103-.62-.104-.104-.207.05-.259-.311-.465-.362-.207-.518-.518-.776-.363-.259.156 0 .26-.517.104-.518-.155-.673-.052-.828-.362-.103-.31-.103-.052-.103-.31-.052-.26-.052-.052-.052-.26 0-.31-.104-.361-.104-.361" id="Shape" fill="#FFC20E" fill-rule="nonzero"/><path d="M29.172 8.845s-.362.103-.517.052c-.155-.052-.155-.156-.362-.156s-.362.052-.569.052c-.207.052-.88-.207-.88-.207l.363.31-.155.052s.31.104.465.207c.207.104.362.259.259.517-.155.259-.052.31-.31.31-.26 0-.156-.206-.26 0-.103.208-.154.26-.465.156-.31-.104-.362-.104-.517-.31-.155-.207-.207-.414-.362-.414s-.569-.207-.414-.104c.104.104.31.156.31.362 0 .156-.103.207.156.31.258.156.414.104.517.311.103.207.466.414.155.362-.31 0-.517-.362-.465-.103.051.258 0 .155.051.517.052.31.052.155.104.569 0 .414 0 .569.155.776.155.207.362.414.155.31-.258-.052-.672-.31-.465-.155.207.103.155.259.517.465.362.207.517-.051.62.104.104.207-.051.259.104.362.207.155.362.207.569.052.207-.155.259-.259.466-.155.258.103-.052.103.155-.207s.362-.052.362-.362-.207-.466.155-.31c.362.154.517.258.672.206l.31-.103s-.361.103-.31-.31c.052-.414-.207-.725.207-.466.414.258.414.414.57.62.154.207.31.466.413.207.103-.258-.31-.258 0-.465.31-.155.259 0 .517-.104.31-.103.362 0 .466-.103.052-.103-.673-.052-.62-.259 0-.207.258-.207.103-.31-.156-.103-.466.155-.414-.155.051-.259.207-.207.517-.155.31.051.569.051.672.31.104.259.052.414.362.414s.26.103.673.052c.465-.052.569.103.569.103l-.466.155s.156.207.362.259c.207.103.207.207.57.155.361-.052.517.103.672.103.207 0-.155-.051-.207-.206-.052-.207-.052-.363.207-.156.258.207.362.31.362.31s-.207-.206.052-.31l.206-.103s-.051-.104.156-.052l.207.104s-.052-.156-.052-.31c0-.208-.155-.208.103-.208.259-.051.414-.258-.155-.207-.517.104-.569.31-.827.207l-.31-.155s.103 0 .154-.207c.052-.207-.051-.258-.207-.362-.155-.155 0-.051.052-.258.052-.207-.155-.207-.052-.362.104-.156.156-.104.207-.156.104 0-.207-.155-.362-.155s-.207-.155-.051-.207c.155-.051.206-.207-.052-.155-.259.052-.31.104-.517.104-.207-.052-.31-.207-.362-.104-.052.155.051.259-.156.31-.207.052-.258-.155-.258.052s.155.259-.052.31c-.259.052-.259.052-.414.31-.103.26.259.363-.103.26-.362-.104-.466.103-.62-.104-.104-.207.05-.259-.311-.465-.362-.207-.518-.518-.776-.363-.259.156 0 .26-.517.104-.518-.155-.673-.052-.828-.362-.103-.31-.103-.052-.103-.31-.052-.26-.052-.052-.052-.26 0-.31-.104-.361-.104-.361" id="Shape" fill="#FFC20E" fill-rule="nonzero"/><path d="M29.172 8.845s-.362.103-.517.052c-.155-.052-.155-.156-.362-.156s-.362.052-.569.052c-.207.052-.88-.207-.88-.207l.363.31-.155.052s.31.104.465.207c.207.104.362.259.259.517-.155.259-.052.31-.31.31-.26 0-.156-.206-.26 0-.103.208-.154.26-.465.156-.31-.104-.362-.104-.517-.31-.155-.207-.207-.414-.362-.414s-.569-.207-.414-.104c.104.104.31.156.31.362 0 .156-.103.207.156.31.258.156.414.104.517.311.103.207.466.414.155.362-.31 0-.517-.362-.465-.103.051.258 0 .155.051.517.052.31.052.155.104.569 0 .414 0 .569.155.776.155.207.362.414.155.31-.258-.052-.672-.31-.465-.155.207.103.155.259.517.465.362.207.517-.051.62.104.104.207-.051.259.104.362.207.155.362.207.569.052.207-.155.259-.259.466-.155.258.103-.052.103.155-.207s.362-.052.362-.362-.207-.466.155-.31c.362.154.517.258.672.206l.31-.103s-.361.103-.31-.31c.052-.414-.207-.725.207-.466.414.258.414.414.57.62.154.207.31.466.413.207.103-.258-.31-.258 0-.465.31-.155.259 0 .517-.104.31-.103.362 0 .466-.103.052-.103-.673-.052-.62-.259 0-.207.258-.207.103-.31-.156-.103-.466.155-.414-.155.051-.259.207-.207.517-.155.31.051.569.051.672.31.104.259.052.414.362.414s.26.103.673.052c.465-.052.569.103.569.103l-.466.155s.156.207.362.259c.207.103.207.207.57.155.361-.052.517.103.672.103.207 0-.155-.051-.207-.206-.052-.207-.052-.363.207-.156.258.207.362.31.362.31s-.207-.206.052-.31l.206-.103s-.051-.104.156-.052l.207.104s-.052-.156-.052-.31c0-.208-.155-.208.103-.208.259-.051.414-.258-.155-.207-.517.104-.569.31-.827.207l-.31-.155s.103 0 .154-.207c.052-.207-.051-.258-.207-.362-.155-.155 0-.051.052-.258.052-.207-.155-.207-.052-.362.104-.156.156-.104.207-.156.104 0-.207-.155-.362-.155s-.207-.155-.051-.207c.155-.051.206-.207-.052-.155-.259.052-.31.104-.517.104-.207-.052-.31-.207-.362-.104-.052.155.051.259-.156.31-.207.052-.258-.155-.258.052s.155.259-.052.31c-.259.052-.259.052-.414.31-.103.26.259.363-.103.26-.362-.104-.466.103-.62-.104-.104-.207.05-.259-.311-.465-.362-.207-.518-.518-.776-.363-.259.156 0 .26-.517.104-.518-.155-.673-.052-.828-.362-.103-.31-.103-.052-.103-.31-.052-.26-.052-.052-.052-.26 0-.31-.104-.361-.104-.361z" id="Shape" stroke="#FFC20E" stroke-width=".07"/><path d="M11.224 9.569s.517.414.414.362c-.362-.259-.207-.569-.259-.724-.051-.104-.155.362-.155.362" id="Shape" fill="#FFC20E" fill-rule="nonzero"/><path d="M11.224 9.569s.517.414.414.362c-.362-.259-.207-.569-.259-.724-.051-.104-.155.362-.155.362" id="Shape" fill="#FFC20E" fill-rule="nonzero"/><path d="M11.224 9.569s.517.414.414.362c-.362-.259-.207-.569-.259-.724-.051-.104-.155.362-.155.362z" id="Shape" stroke="#FFC20E" stroke-width=".07" stroke-linecap="round"/><path d="M15.983 7.138c0 .259.155.31.569.465.414.156.672.621.517.828-.207.259-.207.776-.207 1.086 0 .31-.155.517.052.724.207.207.103.207.31.104.259-.104-.207-.362 0-.724.155-.362.57 0 .724-.259.155-.259.155-.207.207-.62.052-.414-.31 0-.414-.466-.103-.466.156-.466-.362-.517-.465-.052-.051-.156-.362-.259-.362-.103-.31.103-.465 0-.207-.155-.57-.362-.57-.362" id="Shape" fill="#FFC20E" fill-rule="nonzero"/><path d="M15.983 7.138v.103c0 .052.051.104.103.104.052.052.155.103.259.155.052 0 .103.052.155.052.052 0 .103.051.155.051.104.052.155.104.259.156.052.051.155.155.155.258.052.104.052.207.052.31v.207c0 .052-.052.104-.052.104-.052.103-.052.207-.052.259-.051.206 0 .362 0 .569v.31c0 .103-.051.207 0 .258 0 .052.052.104.052.104l.155.155.052-.052.052-.051c.051 0 .051-.052.051-.104s-.051-.103-.051-.103c-.207-.052-.259-.155-.259-.259 0-.052 0-.103.052-.155 0-.052.051-.103.103-.103.052-.052.104-.052.155-.052h.31c.052 0 .104 0 .104-.052 0 0 .052 0 .052-.052l.052-.051c.051-.052.051-.104.051-.104C18 9.052 18 9 18 8.897v-.259l-.052-.052h-.051c-.052 0-.104 0-.156-.052a.111.111 0 0 1-.103-.103c-.052-.052-.052-.103-.052-.155 0-.104-.052-.207-.052-.31v-.104l-.051-.052h-.052c-.103 0-.207 0-.31-.051h-.104v-.104l-.051-.052c-.052 0-.104-.051-.156-.051h-.207s-.051 0-.051.051h-.104l-.051-.051c-.104-.207-.26-.31-.414-.414zm0 0c.155.103.31.207.517.31l.052.052h.051s.052 0 .052-.052h.207c.052 0 .104 0 .155.052h.052l.052.052v.103h.051c.104 0 .207 0 .31.052h.052s.052 0 .052.052v.155c0 .103 0 .207.052.258 0 .052 0 .104.052.156 0 .051.051.051.103.103h.259c.051 0 .051.052.051.052v.465c0 .052 0 .104-.051.155 0 .052-.052.104-.104.156l-.051.051-.052.052c-.052.052-.104.052-.155.052h-.156c-.103 0-.206 0-.258.052-.052 0-.052.051-.104.103 0 .052-.051.103-.051.103 0 .104.051.156.051.259 0 .052.052.103.052.155v.104c0 .051-.052.051-.052.051-.051 0-.051.052-.051.052s-.052 0-.052.052h-.103l-.052-.052-.052-.052-.052-.051c-.051-.052-.051-.104-.051-.156V9.88c0-.051 0-.103.051-.155 0-.103.052-.207.052-.258v-.57c0-.103.052-.206.104-.31 0-.052.051-.103.051-.155v-.155c0-.104 0-.207-.051-.259a.714.714 0 0 0-.156-.207c-.051-.051-.155-.103-.207-.155-.051 0-.103-.052-.155-.052-.051 0-.103-.051-.155-.051-.103-.052-.207-.104-.259-.155l-.103-.104c.052-.052.052-.103.052-.155zm2.276 2.845c.62.414 2.948.88 2.948.88s-1.19-.466-2.017-1.035c-.518-.362-.776-.414-.724-.466 0-.052-.363.517-.207.62z" id="Shape" fill="#FFC20E" fill-rule="nonzero"/><path d="M18.259 9.983c.62.414 2.948.88 2.948.88s-1.19-.466-2.017-1.035c-.518-.362-.776-.414-.724-.466 0-.052-.363.517-.207.62" id="Shape" fill="#FFC20E" fill-rule="nonzero"/><path d="M18.259 9.983c.62.414 2.948.88 2.948.88s-1.19-.466-2.017-1.035c-.518-.362-.776-.414-.724-.466 0-.052-.363.517-.207.62z" id="Shape" stroke="#FFC20E" stroke-width=".07" stroke-linecap="round"/><path d="M18.207 10.086c0 .052 1.759.828 1.862.931.155.104.362.673.828.828.724.207-.156 0-.88-.259-.62-.207-.62-.31-1.293-.465-.62-.155-.517 0-.62-.155-.104-.156.051-.932.051-.932" id="Shape" fill="#FFC20E" fill-rule="nonzero"/><path d="M18.207 10.086c0 .052 1.759.828 1.862.931.155.104.362.673.828.828.724.207-.156 0-.88-.259-.62-.207-.62-.31-1.293-.465-.62-.155-.517 0-.62-.155-.104-.156.051-.932.051-.932" id="Shape" fill="#FFC20E" fill-rule="nonzero"/><path d="M18.207 10.086c0 .052 1.759.828 1.862.931.155.104.362.673.828.828.724.207-.156 0-.88-.259-.62-.207-.62-.31-1.293-.465-.62-.155-.517 0-.62-.155-.104-.156.051-.932.051-.932" id="Shape" stroke="#FFC20E" stroke-width=".07" stroke-linecap="round"/><path d="M24.672 8.224c-.362.828.31-.672 1.5-.672.776 0-.879.103-1.241.155-.362.052-1.759.052-1.5.103.517.104 1.345.156 1.241.414" id="Shape" fill="#FFC20E" fill-rule="nonzero"/><path d="M24.672 8.224c-.362.828.31-.672 1.5-.672.776 0-.879.103-1.241.155-.362.052-1.759.052-1.5.103.517.104 1.345.156 1.241.414" id="Shape" fill="#FFC20E" fill-rule="nonzero"/><path d="M24.672 8.224c-.362.828.31-.672 1.5-.672.776 0-.879.103-1.241.155-.362.052-1.759.052-1.5.103.517.104 1.345.156 1.241.414z" id="Shape" stroke="#FFC20E" stroke-width=".07" stroke-linecap="round"/><path d="M35.845 13.5h.103c.104-.207.466-.983.31-.724-.155.362-.568.88-1.034 1.034" id="Shape" fill="#FFC20E" fill-rule="nonzero"/><path d="M35.845 13.5h.103c.104-.207.466-.983.31-.724-.155.362-.568.88-1.034 1.034" id="Shape" fill="#FFC20E" fill-rule="nonzero"/><path d="M35.845 13.5h.103c.104-.207.466-.983.31-.724-.155.362-.568.88-1.034 1.034" id="Shape" stroke="#FFC20E" stroke-width=".07"/><path d="M41.638 8.328s.62.31.776.517l-.983-.62.207.103z" id="Shape" fill="#FFC20E" fill-rule="nonzero"/><path d="M41.638 8.328s.62.31.776.517l-.983-.62.207.103z" id="Shape" fill="#FFC20E" fill-rule="nonzero"/><path d="M41.638 8.328s.62.31.776.517l-.983-.62.207.103z" id="Shape" stroke="#FFC20E" stroke-width=".07"/><path d="M40.345 16.034c-.207.363-.362.776-.466 1.035-.155.259 0 .672 0 .672s.104-.517.259-.827c.052-.104.207-.88.207-.88" id="Shape" fill="#FFC20E" fill-rule="nonzero"/><path d="M40.345 16.034c-.207.363-.362.776-.466 1.035-.155.259 0 .672 0 .672s.104-.517.259-.827c.052-.104.207-.88.207-.88" id="Shape" fill="#FFC20E" fill-rule="nonzero"/><path d="M40.345 16.034c-.207.363-.362.776-.466 1.035-.155.259 0 .672 0 .672s.104-.517.259-.827c.052-.104.207-.88.207-.88z" id="Shape" stroke="#FFC20E" stroke-width=".07"/><path d="M42.983 11.845s0 1.034.051 2.12c.052 1.087-.517 1.397.31 2.225.828.827 1.087 1.19 1.5 1.5.363.31.88.724.88.724s-1.655-.724-2.017-.88c-.362-.155-1.086-.62-1.397-.827-.31-.207-.93-.62-1.138-.828-.31-.207-.413-.362-.413-.362s1.034-1.293 1.448-1.862c.465-.62.724-1.655.776-1.81" id="Shape" fill="#FFC20E" fill-rule="nonzero"/><path d="M42.983 11.845s0 1.034.051 2.12c.052 1.087-.517 1.397.31 2.225.828.827 1.087 1.19 1.5 1.5.363.31.88.724.88.724s-1.655-.724-2.017-.88c-.362-.155-1.086-.62-1.397-.827-.31-.207-.93-.62-1.138-.828-.31-.207-.413-.362-.413-.362s1.034-1.293 1.448-1.862c.465-.62.724-1.655.776-1.81" id="Shape" fill="#FFC20E" fill-rule="nonzero"/><path d="M42.983 11.845s0 1.034.051 2.12c.052 1.087-.517 1.397.31 2.225.828.827 1.087 1.19 1.5 1.5.363.31.88.724.88.724s-1.655-.724-2.017-.88c-.362-.155-1.086-.62-1.397-.827-.31-.207-.93-.62-1.138-.828-.31-.207-.413-.362-.413-.362s1.034-1.293 1.448-1.862c.465-.62.724-1.655.776-1.81z" id="Shape" stroke="#FFC20E" stroke-width=".07"/><path d="M18.776 7.862l-.207-.207c.052.052.052.155.103.259.104.31-.155.362-.258.672-.155.31 0 .62-.259.88-.258.258-.258.413-.465.672-.207.31-.414.517-.724.569-.31.052-.518-.517-.57-.673-.051-.155 0-.62.104-1.034.052-.414.103-.724.103-.931-.051-.259-.413-.31-.672-.466-.207-.155-.207-.413-.103-.62 0 0 .103-.104.155-.104-.466-.051-1.138.414-1.5.828-.414.414-.414.465-.673.569-.258.103-.155.207-.051.362.103.155.31.259.362.465.051.26.103.31.155.414.052.155.414.052.724.104.31.051.155 0 .259.103.103.104-.466 0-.621.104-.104.155 0 0-.207.206-.207.26-.155.26-.259.414-.155.155-.413.362-.413.362s.62-.051.93 0c.363.052.621.104.983.104s.57-.052.828-.052c.259 0 1.241.31 1.448.362.207.052.259.104.362.155 0 0-.051-.258-.155-.672-.103-.414-.052-.207 0-.724.052-.362.104-.466.259-.88.155-.413.052-.413.207-.672.258-.207.362-.362.155-.569m-3 .155s-.776-.103-.931.104c-.155.207-.362 0-.414 0 .259.103.155.465.517.517.621.103.88.155-.155.155-.052 0 0 0-.207.052-.155.052-.362-.155-.362-.259.052-.207.052-.155.104-.258.051-.156.155-.259.155-.259.258-.207.569-.052.776-.052h.517" id="Shape" fill="#FFC20E" fill-rule="nonzero"/><path d="M18.776 7.914l-.155-.207c.051.052.051.155.103.259 0 .103.052.155 0 .258a.714.714 0 0 1-.155.207.392.392 0 0 0-.103.207c-.052.103-.052.155-.052.259 0 .103 0 .155-.052.258 0 .104-.052.155-.103.259 0 .052-.052.052-.052.103l-.104.104c-.051.051-.103.155-.155.207-.051.051-.103.155-.155.206-.052.052-.103.156-.155.207-.052.052-.104.156-.155.207a.804.804 0 0 1-.414.31c-.052 0-.103 0-.103.052h-.156a.714.714 0 0 1-.207-.155c-.103-.155-.155-.31-.258-.465v-.518c0-.155.052-.362.052-.517 0-.155.051-.362.103-.517 0-.155.052-.362 0-.517 0-.104-.052-.155-.155-.207a.392.392 0 0 0-.207-.104c-.104-.051-.155-.051-.259-.103-.051 0-.103-.052-.103-.052l-.104-.103c-.051-.052-.051-.104-.051-.155V7.24c0-.103.051-.155.103-.258h.104c-.156 0-.31 0-.414.051a1.549 1.549 0 0 0-.414.207 3.906 3.906 0 0 0-.724.57l-.466.465c-.051 0-.051.052-.103.052s-.052.051-.104.051c-.051 0-.051.052-.051.052v.103c0 .052.051.052.051.104s.052.052.052.103l.155.156a.714.714 0 0 1 .156.206c0 .052.051.052.051.104s0 .052.052.103c0 .052.052.156.103.207 0 .052.052.052.052.104h.931v.051l-.052.052h-.465c-.052 0-.052 0-.104.052l-.051.052s0 .051-.052.051l-.052.052-.155.155c0 .052-.052.052-.052.104 0 .051-.051.051-.051.103l-.155.155c-.104.104-.207.207-.363.31v-.051h.88c.051 0 .103 0 .155.052h.155c.207.051.362.051.57.051h.62c.103 0 .207 0 .31-.051h.31c.207.051.363.103.57.103.361.104.775.207 1.137.362 0-.155-.051-.31-.103-.465 0-.052-.052-.156-.052-.207 0-.052-.052-.155-.052-.207v-.207c0-.052.052-.155.052-.207 0-.052 0-.155.052-.259 0-.103.052-.155.052-.206.051-.156.103-.31.155-.414.052-.052.052-.155.052-.207 0-.052.051-.155.051-.207 0-.052 0-.104.052-.104 0-.051.052-.051.052-.103.051-.052.103-.103.103-.207.052-.052.052-.155.052-.207.103 0 .052-.051 0-.103zm.052-.052c.051.052.051.052.051.104 0 .051.052.051.052.103 0 .103-.052.155-.052.207-.051.155-.207.258-.207.414 0 .051 0 .155-.051.207 0 .051-.052.155-.052.206-.052.156-.103.31-.155.414-.052.052-.052.155-.052.207 0 .052 0 .155-.052.207 0 .103 0 .155-.051.207v.207c0 .052.051.155.051.207 0 .051.052.155.052.207.052.155.052.31.104.465v.052h-.052a8.913 8.913 0 0 0-1.086-.362c-.207-.052-.362-.104-.57-.104h-.31c-.103 0-.207 0-.31.052h-.62c-.208 0-.415 0-.57-.052h-1.241l.052-.051.465-.466c0-.052.052-.052.052-.103 0-.052.052-.052.052-.104l.155-.155.051-.052s0-.051.052-.051c0 0 0-.052.052-.052.052-.052.052-.052.103-.052h.414v-.052h-.827s-.052 0-.052-.051v-.104c0-.051-.052-.051-.052-.103-.052-.052-.052-.155-.103-.207 0-.052 0-.052-.052-.104 0-.051 0-.051-.052-.103l-.31-.31c-.052-.052-.052-.052-.052-.104s-.052-.052-.052-.103v-.104c0-.051.052-.051.104-.103.052 0 .052-.052.103-.052.052 0 .052-.052.104-.052l.776-.775c.103-.104.258-.207.362-.26.103-.103.258-.154.414-.206.155-.052.31-.103.465-.103h.052l-.052.051-.052.052c-.051.052-.051.155-.051.259v.207c0 .051.051.051.051.103.052.052.052.052.104.052.051.051.155.051.207.103.103.052.155.052.207.104l.103.103s0 .052.052.052v.569c0 .155-.052.362-.104.517-.051.155-.051.362-.051.517v.466c.051.155.155.31.258.465.052.052.104.104.207.155h.104c.051 0 .103 0 .103-.051a.804.804 0 0 0 .414-.31c.051-.052.103-.156.155-.208.052-.051.103-.155.155-.206.052-.052.104-.156.155-.207.052-.052.104-.155.155-.207l.104-.104c.052-.051.052-.051.052-.103.051-.052.051-.155.051-.259 0-.103 0-.155.052-.258 0-.104.052-.156.052-.259.052-.103.103-.155.155-.207.052-.052.103-.155.155-.207.052-.103 0-.155 0-.258 0-.104-.052-.156-.103-.259l-.104-.155.104.103.207.414z" id="Shape" fill="#FFC20E" fill-rule="nonzero"/><path d="M15.776 8.069c-.104 0-.259 0-.362-.052-.104 0-.259 0-.362.052-.052 0-.104.052-.155.052l-.052.051-.052.052s-.052.052-.103.052h-.207c-.052 0-.104-.052-.155-.104l-.052-.051.103.051c.052 0 .052.052.104.052.051 0 .051.052.051.104.052.051.052.103.104.155 0 .051.052.051.052.103h.051l.052.052s0 .052.052.052h.052c.051 0 .051 0 .103.051.155.052.259.052.414.104h.052-.673s-.052 0-.052.052h-.155c-.103 0-.155-.052-.207-.052-.051 0-.051-.052-.103-.052 0-.052-.052-.052-.052-.103V8.43s0-.052.052-.052c0-.051.052-.051.052-.103.051-.052.051-.104.103-.155.103-.052.207-.104.31-.104.104 0 .207 0 .31.052h.311c.207-.052.31-.052.414 0zm0 0h-.62c-.104 0-.208-.052-.311-.052-.104 0-.207.052-.31.104-.052.051-.052.103-.104.155l-.052.103v.31c0 .052.052.104.104.156-.052-.052 0-.052.051-.052h.932-.052c-.155-.052-.259-.052-.414-.052h-.207s-.052 0-.052-.051v-.104c0-.052-.051-.052-.051-.103-.052-.052-.052-.104-.104-.207-.052-.052-.103-.104-.155-.104v-.051c.052.051.103.051.155.103.052 0 .104.052.155 0 0 0 .052 0 .052-.052l.052-.051.052-.052c.051-.052.103-.052.155-.052.103-.051.258-.051.362-.051.103.051.258.051.362.103zM22.293 15c.31 0 .62-.052.62-.052s.518.931.725.983c.207.052-.414-.052-.414-.052l-.93-.879z" id="Shape" fill="#FFC20E" fill-rule="nonzero"/><path d="M22.293 15c.31 0 .62-.052.62-.052s.518.931.725.983c.207.052-.414-.052-.414-.052l-.93-.879z" id="Shape" fill="#FFC20E" fill-rule="nonzero"/><path d="M22.293 15c.31 0 .62-.052.62-.052s.518.931.725.983c.207.052-.414-.052-.414-.052l-.93-.879z" id="Shape" stroke="#FFC20E" stroke-width=".07" stroke-linecap="round"/><path d="M11.638 8.017s-.31.052-.517 0a.111.111 0 0 0-.104.104c0 .051.104.051.052.103 0 0-.052.052-.103 0-.052-.052.051-.207.051-.207-.103 0-.103.104-.155.259-.052.155 0 .517.052.724.052.207.258.569.362.62.103.052.155-.103.103-.206v-.31c0-.207-.155.051-.31-.156-.207-.207-.103-.362-.052-.414.052-.051.104 0 .104 0 .051.052.103.104.051.207 0 .104.052.104.156.156.258.155.155-.052.31-.26l.103-.103v-.051c.104-.104 0-.259-.103-.466" id="Shape" fill="#FFC20E" fill-rule="nonzero"/><path d="M11.638 8.017s-.31.052-.517 0a.111.111 0 0 0-.104.104c0 .051.104.051.052.103 0 0-.052.052-.103 0-.052-.052.051-.207.051-.207-.103 0-.103.104-.155.259-.052.155 0 .517.052.724.052.207.258.569.362.62.103.052.155-.103.103-.206v-.31c0-.207-.155.051-.31-.156-.207-.207-.103-.362-.052-.414.052-.051.104 0 .104 0 .051.052.103.104.051.207 0 .104.052.104.156.156.258.155.155-.052.31-.26l.103-.103v-.051c.104-.104 0-.259-.103-.466" id="Shape" fill="#FFC20E" fill-rule="nonzero"/><path d="M11.638 8.017s-.31.052-.517 0a.111.111 0 0 0-.104.104c0 .051.104.051.052.103 0 0-.052.052-.103 0-.052-.052.051-.207.051-.207-.103 0-.103.104-.155.259-.052.155 0 .517.052.724.052.207.258.569.362.62.103.052.155-.103.103-.206v-.31c0-.207-.155.051-.31-.156-.207-.207-.103-.362-.052-.414.052-.051.104 0 .104 0 .051.052.103.104.051.207 0 .104.052.104.156.156.258.155.155-.052.31-.26l.103-.103v-.051c.104-.104 0-.259-.103-.466z" id="Shape" stroke="#FFC20E" stroke-width=".07" stroke-linecap="round"/><path d="M42.052 21.207c.258-.207 0-.052.362-.207.258-.103.155-.207.155-.207s.103.31-.207.362c-.31 0-.259.052-.362.31-.103.207-.103.363-.103.363-.104-.259 0-.518.155-.621" id="Shape" fill="#FFC20E" fill-rule="nonzero"/><path d="M42.052 21.207c.258-.207 0-.052.362-.207.258-.103.155-.207.155-.207s.103.31-.207.362c-.31 0-.259.052-.362.31-.103.207-.103.363-.103.363-.104-.259 0-.518.155-.621" id="Shape" fill="#FFC20E" fill-rule="nonzero"/><path d="M42.052 21.207c.258-.207 0-.052.362-.207.258-.103.155-.207.155-.207s.103.31-.207.362c-.31 0-.259.052-.362.31-.103.207-.103.363-.103.363-.104-.259 0-.518.155-.621z" id="Shape" stroke="#FFC20E" stroke-width=".07" stroke-linecap="round"/><path d="M42.466 20.948c-.156.104-.363 0-.466.31 0 .052-.103.466-.207.621-.103.155-.62.673-.776.983-.103.31-.362.62-.517.931-.155.31-.155.362-.155.62-.052.26-.155.466-.207.466-.104.052.465-.258.465-.31 0-.052 0-.672.26-1.086.31-.414.568-1.035.723-1.293.052-.052.052-.052.88-1.242" id="Shape" fill="#FFC20E" fill-rule="nonzero"/><path d="M42.466 20.948c-.156.104-.363 0-.466.31 0 .052-.103.466-.207.621-.103.155-.62.673-.776.983-.103.31-.362.62-.517.931-.155.31-.155.362-.155.62-.052.26-.155.466-.207.466-.104.052.465-.258.465-.31 0-.052 0-.672.26-1.086.31-.414.568-1.035.723-1.293.052-.052.052-.052.88-1.242" id="Shape" fill="#FFC20E" fill-rule="nonzero"/><path d="M42.466 20.948c-.156.104-.363 0-.466.31 0 .052-.103.466-.207.621-.103.155-.62.673-.776.983-.103.31-.362.62-.517.931-.155.31-.155.362-.155.62-.052.26-.155.466-.207.466-.104.052.465-.258.465-.31 0-.052 0-.672.26-1.086.31-.414.568-1.035.723-1.293.052-.052.052-.052.88-1.242z" id="Shape" stroke="#FFC20E" stroke-width=".07" stroke-linecap="round"/><path d="M25.707 20.224s.362.155.569.362c.155.207.31.414.362.724.052.31.259.414.31.57.052.154.104.413.207.361.517-.207.104-.103-.052-.258-.155-.155-.206-.052-.31-.57-.103-.516-.207-.62-.414-.879-.207-.206-.413-.362-.517-.362-.103-.051-.155.052-.155.052" id="Shape" fill="#FFC20E" fill-rule="nonzero"/><path d="M25.707 20.224s.362.155.569.362c.155.207.31.414.362.724.052.31.259.414.31.57.052.154.104.413.207.361.517-.207.104-.103-.052-.258-.155-.155-.206-.052-.31-.57-.103-.516-.207-.62-.414-.879-.207-.206-.413-.362-.517-.362-.103-.051-.155.052-.155.052" id="Shape" fill="#FFC20E" fill-rule="nonzero"/><path d="M25.707 20.224s.362.155.569.362c.155.207.31.414.362.724.052.31.259.414.31.57.052.154.104.413.207.361.517-.207.104-.103-.052-.258-.155-.155-.206-.052-.31-.57-.103-.516-.207-.62-.414-.879-.207-.206-.413-.362-.517-.362-.103-.051-.155.052-.155.052" id="Shape" stroke="#FFC20E" stroke-width=".07" stroke-linecap="round"/><path d="M20.224 24.052s-.103.155-.052.31c0 .155.104-.207.207-.207.052 0-.155-.103-.155-.103" id="Shape" fill="#FFC20E" fill-rule="nonzero"/><path d="M20.224 24.052s-.103.155-.052.31c0 .155.104-.207.207-.207.052 0-.155-.103-.155-.103" id="Shape" fill="#FFC20E" fill-rule="nonzero"/><path d="M20.224 24.052s-.103.155-.052.31c0 .155.104-.207.207-.207.052 0-.155-.103-.155-.103z" id="Shape" stroke="#FFC20E" stroke-width=".07" stroke-linecap="round"/><path d="M20.586 24.259s-.103.103-.052.155c0 .103.104-.104.207-.104.104 0-.155-.051-.155-.051" id="Shape" fill="#FFC20E" fill-rule="nonzero"/><path d="M20.586 24.259s-.103.103-.052.155c0 .103.104-.104.207-.104.104 0-.155-.051-.155-.051" id="Shape" fill="#FFC20E" fill-rule="nonzero"/><path d="M20.586 24.259s-.103.103-.052.155c0 .103.104-.104.207-.104.104 0-.155-.051-.155-.051z" id="Shape" stroke="#FFC20E" stroke-width=".07" stroke-linecap="round"/><path d="M20.431 24.259s.155-.362.466-.466c.31-.155-.156.259-.156.259l-.155.258-.155-.051z" id="Shape" fill="#FFC20E" fill-rule="nonzero"/><path d="M20.431 24.259s.155-.362.466-.466c.31-.155-.156.259-.156.259l-.155.258-.155-.051z" id="Shape" fill="#FFC20E" fill-rule="nonzero"/><path d="M20.431 24.259s.155-.362.466-.466c.31-.155-.156.259-.156.259l-.155.258-.155-.051z" id="Shape" stroke="#FFC20E" stroke-width=".07" stroke-linecap="round"/><path d="M35.948 13.448c-.258.155-.672.414-1.293.57-.62.154-.827.206-1.603.361-.104 0-.414.207-.57.414 0 0 1.139-.362 2.018-.414h.103s-.155.259-.775.362c-.259.052-1.087.362-1.294.518-.206.155-1.396.775-1.5.879-.155.155-.362.259-.465.31 0 0 1.034-.465 1.707-.827.62-.362.983-.466 1.655-.621.672-.155 1.552-.31 1.759-.31.207 0 .62-.052.62-.052l.31-.828-.672-.362z" id="Shape" fill="#FFC20E" fill-rule="nonzero"/><path d="M35.948 13.448c-.258.155-.672.414-1.293.57-.62.154-.827.206-1.603.361-.104 0-.414.207-.57.414 0 0 1.139-.362 2.018-.414h.103s-.155.259-.775.362c-.259.052-1.087.362-1.294.518-.206.155-1.396.775-1.5.879-.155.155-.362.259-.465.31 0 0 1.034-.465 1.707-.827.62-.362.983-.466 1.655-.621.672-.155 1.552-.31 1.759-.31.207 0 .62-.052.62-.052l.31-.828-.672-.362z" id="Shape" fill="#FFC20E" fill-rule="nonzero"/><path d="M35.948 13.448c-.258.155-.672.414-1.293.57-.62.154-.827.206-1.603.361-.104 0-.414.207-.57.414 0 0 1.139-.362 2.018-.414h.103s-.155.259-.775.362c-.259.052-1.087.362-1.294.518-.206.155-1.396.775-1.5.879-.155.155-.362.259-.465.31 0 0 1.034-.465 1.707-.827.62-.362.983-.466 1.655-.621.672-.155 1.552-.31 1.759-.31.207 0 .62-.052.62-.052l.31-.828-.672-.362z" id="Shape" stroke="#FFC20E" stroke-width=".07"/><path d="M12.052 8.069c.207.052.31.155.207.465l-.207-.465zm0-.052c.051 0 .103.052.155.052l.103.103v.156c0 .051 0 .103-.051.155 0-.052 0-.104.051-.155v-.156c0-.051-.051-.051-.103-.103-.052.052-.104 0-.155-.052 0 .052 0 .052 0 0zM48.931 23.638s-.207-.362-.155-.517c.052-.155.258-.207.258-.362l.052-.156s-.103.207-.258.363c-.104.103-.207.051-.207.206.051.156.103.57.103.621.052 0 .207-.155.207-.155" id="Shape" fill="#FFC20E" fill-rule="nonzero"/><path d="M48.931 23.638s-.207-.362-.155-.517c.052-.155.258-.207.258-.362l.052-.156s-.103.207-.258.363c-.104.103-.207.051-.207.206.051.156.103.57.103.621.052 0 .207-.155.207-.155" id="Shape" fill="#FFC20E" fill-rule="nonzero"/><path d="M48.931 23.638s-.207-.362-.155-.517c.052-.155.258-.207.258-.362l.052-.156s-.103.207-.258.363c-.104.103-.207.051-.207.206.051.156.103.57.103.621.052 0 .207-.155.207-.155z" id="Shape" stroke="#FFC20E" stroke-width=".07"/><path d="M47.534 18c.31.155.57.155.776.207.207.052.31.259.362.465.052.207.518 1.397.57 1.604.051.207.465 1.034.568 1.345.104.31.259.62.259.62l-.207-.258s-.31-.052-.414-.466c-.103-.414-.414-1.345-.93-2.069-.518-.724-.156-.776-.673-1.138-1.19-.724-.776-.517-.776-.517" id="Shape" fill="#FFC20E" fill-rule="nonzero"/><path d="M47.534 18c.31.155.57.155.776.207.207.052.31.259.362.465.052.207.518 1.397.57 1.604.051.207.465 1.034.568 1.345.104.31.259.62.259.62l-.207-.258s-.31-.052-.414-.466c-.103-.414-.414-1.345-.93-2.069-.518-.724-.156-.776-.673-1.138-1.19-.724-.776-.517-.776-.517" id="Shape" fill="#FFC20E" fill-rule="nonzero"/><path d="M47.534 18c.31.155.57.155.776.207.207.052.31.259.362.465.052.207.518 1.397.57 1.604.051.207.465 1.034.568 1.345.104.31.259.62.259.62l-.207-.258s-.31-.052-.414-.466c-.103-.414-.414-1.345-.93-2.069-.518-.724-.156-.776-.673-1.138-1.19-.724-.776-.517-.776-.517" id="Shape" stroke="#FFC20E" stroke-width=".07" stroke-linecap="round"/><path d="M14.431 8.12l-.052.104s.155.052.207.104c.052.051.104.051.207.051.104 0 .104-.155.104-.155s-.26-.052-.31-.103c-.104.051-.156 0-.156 0" id="Shape" fill="#FFC20E" fill-rule="nonzero"/><path d="M14.431 8.12l-.052.104s.155.052.207.104c.052.051.104.051.207.051.104 0 .104-.155.104-.155s-.26-.052-.31-.103c-.104.051-.156 0-.156 0" id="Shape" fill="#FFC20E" fill-rule="nonzero"/><path d="M14.431 8.12l-.052.104s.155.052.207.104c.052.051.104.051.207.051.104 0 .104-.155.104-.155s-.26-.052-.31-.103c-.104.051-.156 0-.156 0z" id="Shape" stroke="#FFC20E" stroke-width=".07" stroke-linecap="round"/><path d="M39.207 15.672c.414-.879.724-1.086 1.138-1.448.414-.362.672-.362 1.19-.88.517-.568.879-1.292.93-1.706.052-.414.104-1.293-.051-1.035-.31.518-.983 1.81-1.448 2.328-.31.31-.104.155-.466.466-.31.258-.207-.57-.259-.931-.051-.621-.103.62-.258 1.344-.155.57-.57 1.19-.776 1.604-.207.414-.207.569-.259.724 0 .103.259-.466.259-.466" id="Shape" fill="#FFC20E" fill-rule="nonzero"/><path d="M39.207 15.672c.414-.879.724-1.086 1.138-1.448.414-.362.672-.362 1.19-.88.517-.568.879-1.292.93-1.706.052-.414.104-1.293-.051-1.035-.31.518-.983 1.81-1.448 2.328-.31.31-.104.155-.466.466-.31.258-.207-.57-.259-.931-.051-.621-.103.62-.258 1.344-.155.57-.57 1.19-.776 1.604-.207.414-.207.569-.259.724 0 .103.259-.466.259-.466" id="Shape" fill="#FFC20E" fill-rule="nonzero"/><path d="M39.207 15.672c.414-.879.724-1.086 1.138-1.448.414-.362.672-.362 1.19-.88.517-.568.879-1.292.93-1.706.052-.414.104-1.293-.051-1.035-.31.518-.983 1.81-1.448 2.328-.31.31-.104.155-.466.466-.31.258-.207-.57-.259-.931-.051-.621-.103.62-.258 1.344-.155.57-.57 1.19-.776 1.604-.207.414-.207.569-.259.724 0 .103.259-.466.259-.466z" id="Shape" stroke="#FFC20E" stroke-width=".07"/><path d="M28.552 16.293c.051.104.465.052.465.259 0 .362-.465.672-.672.827-.207.155-.673.518-1.138.828-.414.259-.983.569-1.19.62-.207.104-.569.414-.724.57-.155.103-.31.362 0 .517.31.155.673.207.828.465 0 0-.414-.103-.673-.051-.258 0-.465-.362-.62-.414-.156-.052-.207-.466-.207-.466s-.052-.155.155-.207c.207-.051.207.052.569-.207.362-.31.672-.62.88-.724.258-.103.516-.103.982-.362.465-.258.88-.569 1.086-.827.155-.259-.465-.621-.31-.57.31.156.62.363.672.208.052-.31-.103-.466-.103-.466" id="Shape" fill="#FFC20E" fill-rule="nonzero"/><path d="M28.552 16.293c.051.104.465.052.465.259 0 .362-.465.672-.672.827-.207.155-.673.518-1.138.828-.414.259-.983.569-1.19.62-.207.104-.569.414-.724.57-.155.103-.31.362 0 .517.31.155.673.207.828.465 0 0-.414-.103-.673-.051-.258 0-.465-.362-.62-.414-.156-.052-.207-.466-.207-.466s-.052-.155.155-.207c.207-.051.207.052.569-.207.362-.31.672-.62.88-.724.258-.103.516-.103.982-.362.465-.258.88-.569 1.086-.827.155-.259-.465-.621-.31-.57.31.156.62.363.672.208.052-.31-.103-.466-.103-.466" id="Shape" fill="#FFC20E" fill-rule="nonzero"/><path d="M28.552 16.293c.051.104.465.052.465.259 0 .362-.465.672-.672.827-.207.155-.673.518-1.138.828-.414.259-.983.569-1.19.62-.207.104-.569.414-.724.57-.155.103-.31.362 0 .517.31.155.673.207.828.465 0 0-.414-.103-.673-.051-.258 0-.465-.362-.62-.414-.156-.052-.207-.466-.207-.466s-.052-.155.155-.207c.207-.051.207.052.569-.207.362-.31.672-.62.88-.724.258-.103.516-.103.982-.362.465-.258.88-.569 1.086-.827.155-.259-.465-.621-.31-.57.31.156.62.363.672.208.052-.31-.103-.466-.103-.466z" id="Shape" stroke="#FFC20E" stroke-width=".07"/><path d="M25.707 16.81c.362-.258.88-.31 1.241-.258l.414.051s-.88-.155-1.086-.206c-.207 0-.57.413-.57.413" id="Shape" fill="#FFC20E" fill-rule="nonzero"/><path d="M25.707 16.81c.362-.258.88-.31 1.241-.258l.414.051s-.88-.155-1.086-.206c-.207 0-.57.413-.57.413" id="Shape" fill="#FFC20E" fill-rule="nonzero"/><path d="M25.707 16.81c.362-.258.88-.31 1.241-.258l.414.051s-.88-.155-1.086-.206c-.207 0-.57.413-.57.413z" id="Shape" stroke="#FFC20E" stroke-width=".07"/><path d="M17.845 7.397c-.155-.104-.207-.207-.414-.26-.207 0-.517.156-.672 0-.156-.103-.414-.361-.414-.361s.362-.155.672 0c0 0 .414.103.155-.155-.103-.104-.517-.259-.517-.259s-.414-.052.052-.052c.465 0 .88.104.983.31.103.156.258-.051.31.208.052.206.103.31.103.413 0 .156-.258.156-.258.156" id="Shape" fill="#FFC20E" fill-rule="nonzero"/><path d="M17.845 7.397c-.155-.104-.207-.207-.414-.26-.207 0-.517.156-.672 0-.156-.103-.414-.361-.414-.361s.362-.155.672 0c0 0 .414.103.155-.155-.103-.104-.517-.259-.517-.259s-.414-.052.052-.052c.465 0 .88.104.983.31.103.156.258-.051.31.208.052.206.103.31.103.413 0 .156-.258.156-.258.156" id="Shape" fill="#FFC20E" fill-rule="nonzero"/><path d="M17.845 7.397c-.155-.104-.207-.207-.414-.26-.207 0-.517.156-.672 0-.156-.103-.414-.361-.414-.361s.362-.155.672 0c0 0 .414.103.155-.155-.103-.104-.517-.259-.517-.259s-.414-.052.052-.052c.465 0 .88.104.983.31.103.156.258-.051.31.208.052.206.103.31.103.413 0 .156-.258.156-.258.156z" id="Shape" stroke="#FFC20E" stroke-width=".07" stroke-linecap="round"/><path d="M14.534 8.638s-.155 0-.206-.104c0-.051 0-.155.051-.206 0 0 .052 0 .104.051.103.104.103.259.051.259" id="Shape" fill="#FFC20E" fill-rule="nonzero"/><path d="M14.534 8.638s-.155 0-.206-.104c0-.051 0-.155.051-.206 0 0 .052 0 .104.051.103.104.103.259.051.259" id="Shape" fill="#FFC20E" fill-rule="nonzero"/><path d="M14.534 8.638s-.155 0-.206-.104c0-.051 0-.155.051-.206 0 0 .052 0 .104.051.103.104.103.259.051.259z" id="Shape" stroke="#FFC20E" stroke-width=".03"/><ellipse id="Oval" stroke="#FFC20E" stroke-width=".81" cx="32.638" cy="15.052" rx="32.379" ry="14.793"/><path d="M54.207 23.069c.155 0 .259.103.259.259 0 .155-.104.258-.26.258-.154 0-.258-.103-.258-.258-.051-.156.104-.259.259-.259zm0 .052c-.104 0-.207.103-.207.258 0 .155.103.259.207.259.103 0 .207-.104.207-.259 0-.155-.104-.258-.207-.258zm-.052.413l-.052-.31h.207l.052.052c0 .052-.052.052-.052.052.052 0 .052.051.052.051v.104h-.052v-.104c0-.051-.051-.051-.051-.051h-.052v.206h-.052zm0-.206c.104 0 .104 0 .104-.052s0-.052-.052-.052h-.052v.104z" id="Shape" fill="#FFC20E" fill-rule="nonzero"/><path d="M54.207 23.069c.155 0 .259.103.259.259 0 .155-.104.258-.26.258-.154 0-.258-.103-.258-.258-.051-.156.104-.259.259-.259zm0 .052c-.104 0-.207.103-.207.258 0 .155.103.259.207.259.103 0 .207-.104.207-.259 0-.155-.104-.258-.207-.258zm-.052.413l-.052-.31h.207l.052.052c0 .052-.052.052-.052.052.052 0 .052.051.052.051v.104h-.052v-.104c0-.051-.051-.051-.051-.051h-.052v.206h-.052zm0-.206c.104 0 .104 0 .104-.052s0-.052-.052-.052h-.052v.104z" id="Shape" stroke="#FFC20E" stroke-width=".07"/></g></g></svg>